<?xml version="1.0" standalone="no"?>
<!DOCTYPE svg PUBLIC "-//W3C//DTD SVG 20010904//EN"
 "http://www.w3.org/TR/2001/REC-SVG-20010904/DTD/svg10.dtd">
<svg version="1.0" xmlns="http://www.w3.org/2000/svg"
 width="3464.000000pt" height="2309.000000pt" viewBox="0 0 3464.000000 2309.000000"
 preserveAspectRatio="xMidYMid meet">
<metadata>
Created by potrace 1.15, written by Peter Selinger 2001-2017
</metadata>
<g transform="translate(0.000000,2309.000000) scale(0.100000,-0.100000)"
fill="#000000" stroke="none">
<path d="M25879 19101 c-46 -15 -69 -31 -69 -51 0 -11 -6 -20 -14 -20 -8 0
-16 -5 -18 -11 -2 -5 -18 -11 -36 -11 -17 -1 -32 -5 -32 -10 0 -4 -7 -8 -15
-8 -8 0 -15 -6 -15 -13 0 -32 -35 -46 -118 -48 -45 -2 -82 -7 -82 -12 0 -5 -8
-6 -17 -3 -11 4 -8 -2 7 -14 14 -11 28 -20 32 -20 4 0 10 -10 14 -22 3 -13 13
-31 22 -40 27 -31 -1 -19 -43 18 -22 20 -32 34 -22 30 24 -8 21 1 -8 20 -16
11 -34 14 -55 9 -30 -7 -31 -8 -16 -30 l16 -24 -32 11 c-22 8 -33 8 -35 1 -2
-6 -12 -9 -22 -6 -11 3 -18 -1 -18 -11 0 -9 4 -16 9 -16 4 0 7 -5 6 -11 -2 -6
3 -14 11 -17 10 -3 12 0 8 12 -4 10 -3 15 3 11 17 -10 12 -48 -5 -41 -8 3 -15
1 -15 -4 0 -11 -78 -11 -86 1 -6 10 -48 12 -57 2 -11 -10 50 -43 80 -43 14 0
23 -3 19 -7 -7 -7 -37 -13 -78 -14 -22 0 -28 -5 -28 -23 0 -12 5 -27 12 -34 9
-9 9 -12 -3 -12 -8 0 -20 5 -26 11 -7 7 -19 9 -28 5 -14 -5 -15 -9 -5 -21 14
-17 7 -29 -18 -30 -9 -1 -27 -2 -39 -3 -12 -1 -30 -10 -40 -20 -10 -10 -37
-24 -59 -30 -26 -7 -44 -19 -47 -31 -3 -12 -17 -20 -46 -25 -23 -3 -44 -13
-47 -21 -3 -8 -21 -17 -38 -21 -27 -5 -32 -9 -29 -28 4 -17 -2 -23 -28 -31
-40 -12 -47 -42 -14 -57 30 -13 23 -28 -13 -28 -26 -1 -25 -2 13 -25 37 -23
35 -36 -3 -16 -9 4 -30 11 -47 15 l-30 6 25 -15 c14 -8 19 -14 11 -15 -8 0
-11 -7 -8 -19 4 -15 -2 -20 -27 -25 -63 -13 -84 -28 -82 -60 2 -41 -17 -43
-36 -4 -16 32 -17 32 -19 8 -1 -14 -1 -28 0 -32 0 -5 -3 -8 -9 -8 -5 0 -7 -7
-4 -15 10 -26 -16 -16 -28 10 -9 19 -14 22 -25 14 -7 -7 -11 -20 -8 -30 4 -13
1 -19 -9 -19 -12 0 -16 -10 -16 -35 0 -29 -4 -36 -25 -41 -28 -7 -31 -14 -12
-33 10 -11 7 -13 -15 -9 -45 8 -40 -27 14 -112 8 -14 19 -38 23 -55 l7 -30
-31 29 c-19 18 -31 24 -31 16 0 -43 138 -173 201 -190 24 -7 45 -8 46 -3 2 4
22 7 46 5 40 -3 46 0 80 37 20 23 37 47 37 54 0 8 18 33 40 58 22 24 40 48 40
52 0 5 5 5 10 2 6 -3 10 -2 10 3 0 6 -7 12 -15 16 -8 3 -15 11 -15 17 0 8 5 7
17 -2 14 -12 16 -12 8 0 -6 11 -2 13 23 8 20 -4 32 -2 32 4 0 7 9 9 21 6 14
-4 29 2 46 19 13 13 31 24 40 24 9 0 30 12 45 27 26 25 36 28 102 28 70 0 76
-2 102 -30 15 -16 45 -37 67 -45 53 -20 83 -73 91 -160 11 -122 23 -135 124
-136 39 -1 72 2 72 6 0 18 53 27 130 23 104 -5 135 -22 215 -122 30 -39 70
-85 89 -103 18 -18 48 -60 65 -93 18 -33 37 -65 42 -71 4 -6 11 -37 15 -70 4
-32 14 -67 22 -77 14 -16 14 -20 2 -27 -12 -7 -12 -12 3 -28 20 -22 22 -42 5
-42 -6 0 -2 -10 10 -23 24 -25 30 -46 10 -30 -38 29 -64 20 -32 -11 8 -9 12
-16 8 -16 -3 0 -1 -7 6 -15 10 -13 9 -15 -11 -15 -43 0 -52 -14 -29 -42 33
-43 23 -61 -21 -37 -18 9 -19 7 -13 -15 5 -21 3 -24 -15 -19 -19 5 -19 3 -10
-28 6 -19 12 -45 15 -59 3 -14 14 -31 24 -39 18 -12 28 -41 14 -41 -3 0 -17
14 -31 30 -13 17 -31 30 -38 30 -19 0 -25 -61 -9 -94 18 -38 18 -60 -1 -52 -9
3 -15 0 -15 -9 0 -8 -6 -15 -13 -15 -8 0 -22 -9 -31 -19 -16 -17 -16 -24 -5
-58 7 -21 22 -49 34 -63 29 -35 47 -71 41 -78 -3 -3 -16 0 -29 6 -12 6 -27 12
-34 14 -7 2 -39 46 -72 98 -84 133 -90 140 -111 140 -10 0 -22 5 -25 10 -12
19 -35 -10 -35 -44 l0 -31 -20 32 c-11 18 -31 35 -46 39 -15 4 -34 14 -43 23
-27 25 -62 48 -126 82 -59 30 -62 31 -157 25 -85 -5 -98 -4 -98 10 0 8 4 13 9
10 5 -3 15 20 23 52 13 54 16 57 47 60 26 3 30 6 21 17 -16 19 -4 35 25 35 39
0 72 17 112 57 63 64 88 98 85 116 -2 9 2 17 10 17 19 1 58 36 58 53 0 8 7 20
15 27 8 7 15 17 15 23 0 6 7 18 15 27 14 16 14 21 -1 56 -36 85 -40 89 -81 87
-28 -2 -34 0 -23 7 8 5 23 10 33 10 9 0 17 7 17 16 0 10 -6 13 -17 10 -10 -3
-25 -1 -33 4 -9 5 -19 5 -26 -1 -9 -7 -20 -6 -36 4 -13 8 -30 13 -38 11 -8 -1
-28 -6 -45 -9 -35 -7 -106 -46 -100 -54 6 -11 -20 -36 -55 -52 -20 -9 -65 -42
-101 -72 -57 -49 -71 -56 -114 -59 -45 -3 -51 -7 -81 -48 -18 -25 -33 -53 -33
-62 -1 -9 -5 -20 -11 -23 -19 -12 -10 -48 18 -71 15 -13 30 -24 33 -24 12 0
57 -96 65 -135 4 -22 13 -49 20 -60 9 -13 10 -25 4 -35 -14 -22 -1 -83 23
-101 19 -15 22 -15 53 3 23 14 31 24 27 38 -3 11 0 20 6 20 6 0 11 -11 11 -25
0 -36 36 -41 98 -15 53 23 72 21 72 -8 0 -10 14 -26 30 -35 44 -26 40 -58 -10
-86 -58 -33 -110 -97 -110 -138 0 -39 12 -42 38 -8 23 29 37 32 46 9 4 -10 -3
-23 -19 -36 -14 -11 -25 -26 -25 -33 0 -20 56 -79 64 -67 9 15 48 2 42 -14 -6
-16 -1 -20 46 -28 36 -7 37 -6 30 16 -8 23 -5 58 4 58 3 0 12 -7 21 -15 16
-17 33 -12 33 11 0 20 34 18 53 -3 8 -10 18 -35 22 -55 6 -33 9 -36 22 -23 24
25 36 18 29 -17 -3 -17 -1 -46 6 -65 9 -25 9 -41 1 -63 -6 -17 -7 -32 -3 -35
10 -6 60 56 60 73 0 17 22 15 48 -4 14 -9 21 -22 18 -32 -3 -10 -1 -24 5 -32
8 -12 9 -10 7 9 -4 31 17 39 26 9 4 -13 10 -18 12 -11 11 25 114 -15 114 -45
0 -9 -9 -30 -20 -47 -11 -16 -20 -42 -20 -57 0 -25 -2 -27 -24 -18 -30 11 -40
-7 -26 -48 9 -24 8 -25 -3 -10 -19 25 -26 13 -20 -33 5 -31 2 -39 -10 -39 -8
0 -17 6 -20 13 -7 19 -14 6 -22 -40 -4 -29 -3 -43 4 -43 6 0 11 8 11 18 1 15
2 15 11 -2 9 -14 8 -20 -1 -26 -16 -10 38 -40 71 -40 29 0 89 22 89 32 0 4 5
8 11 8 13 0 53 30 116 87 25 23 60 47 77 54 17 7 44 24 60 37 17 13 40 28 53
33 13 5 23 13 23 19 0 5 6 10 13 10 17 -1 77 -57 77 -73 0 -7 7 -23 16 -35 15
-22 18 -19 136 160 67 101 131 199 143 218 36 56 193 250 260 320 34 36 98
106 143 156 87 98 184 187 245 223 34 21 48 41 29 41 -5 0 -26 29 -47 65 -21
36 -39 65 -41 65 -2 0 -3 -11 -2 -24 1 -14 6 -22 12 -19 5 3 6 2 3 -4 -3 -5 3
-17 14 -27 12 -10 19 -20 16 -23 -13 -12 -58 46 -64 82 -4 26 -3 36 5 31 6 -3
13 -3 15 2 6 9 -36 131 -56 163 -8 13 -30 67 -47 119 -32 96 -39 154 -54 445
-4 73 -12 112 -46 205 -23 63 -50 147 -60 187 -10 39 -21 76 -24 82 -4 6 -18
46 -31 90 -24 82 -79 178 -152 269 -24 30 -43 57 -43 60 0 4 -22 30 -50 59
-34 35 -78 66 -140 97 -49 25 -109 58 -132 74 -24 16 -63 40 -88 52 -25 13
-49 28 -55 35 -25 29 -122 101 -157 117 -97 44 -264 68 -329 49z m699 -1121
c55 -32 102 -87 133 -156 11 -23 44 -74 74 -113 30 -39 55 -75 55 -80 0 -5 6
-14 14 -20 8 -7 14 -27 14 -46 0 -20 15 -65 36 -106 20 -39 36 -77 36 -84 0
-8 8 -29 19 -47 65 -113 91 -159 119 -204 18 -28 32 -55 33 -60 1 -19 67 -100
90 -111 13 -7 24 -16 24 -21 0 -5 14 -21 30 -36 l30 -26 -29 6 c-26 6 -27 5
-17 -14 12 -23 6 -48 -15 -56 -8 -3 -14 -15 -14 -26 0 -11 -4 -20 -10 -20 -5
0 -10 -10 -10 -23 0 -12 -16 -40 -35 -62 -20 -22 -42 -51 -50 -65 -7 -14 -25
-32 -39 -39 -14 -8 -23 -17 -21 -21 3 -4 -13 -19 -34 -34 -21 -15 -43 -38 -50
-52 -7 -16 -17 -24 -25 -21 -8 3 -17 -1 -20 -9 -3 -9 -10 -13 -14 -10 -4 3
-16 -10 -26 -29 -19 -35 -55 -52 -67 -33 -4 7 -6 15 -3 19 2 4 -6 5 -18 1
l-21 -5 21 -18 c23 -18 21 -43 -5 -53 -9 -4 -17 1 -20 13 -3 11 -12 22 -20 25
-9 4 -12 13 -8 25 3 11 1 22 -5 26 -6 4 -10 32 -9 63 4 163 -1 250 -16 262 -8
7 -15 21 -15 31 0 11 -4 19 -10 19 -5 0 -10 6 -10 14 0 7 -7 19 -15 26 -9 7
-13 20 -10 27 2 8 0 24 -6 36 -9 16 -9 22 0 25 18 6 13 17 -25 56 -19 20 -33
40 -29 45 3 5 -4 12 -15 16 -15 5 -20 15 -20 39 0 27 -12 44 -76 107 -42 41
-86 88 -97 105 -72 103 -119 179 -135 216 -50 110 -62 142 -62 157 0 25 43
101 58 101 22 0 62 51 62 79 1 34 34 129 51 146 55 54 148 60 227 15z m8
-1355 c-3 -8 -16 -15 -28 -16 -13 0 -17 -3 -9 -6 11 -5 11 -7 0 -14 -12 -8
-12 -10 0 -18 7 -5 11 -13 7 -19 -3 -5 0 -15 8 -21 18 -15 8 -59 -15 -66 -10
-3 -27 -1 -39 5 -24 13 -56 70 -39 70 8 0 8 4 2 13 -17 21 -24 65 -10 64 54
-2 75 5 87 27 11 22 14 23 27 10 8 -8 12 -21 9 -29z"/>
<path d="M26476 17951 c-4 -5 11 -27 32 -48 20 -21 51 -56 67 -78 17 -22 38
-46 48 -53 42 -32 69 -153 49 -225 -12 -42 1 -58 20 -25 8 14 13 61 13 123 0
129 -20 187 -92 261 -45 48 -56 54 -92 54 -22 0 -42 -4 -45 -9z"/>
<path d="M26575 17763 c-11 -3 -25 -9 -31 -14 -6 -5 -44 -6 -83 -3 -57 6 -71
4 -71 -7 1 -22 35 -93 53 -108 21 -17 22 -41 2 -41 -20 0 -19 -9 4 -61 14 -32
18 -56 14 -86 -4 -32 -1 -50 13 -70 10 -16 19 -49 20 -74 2 -50 29 -113 44
-104 6 4 3 16 -6 31 -11 16 -14 35 -10 54 3 17 1 41 -4 55 -13 35 20 161 48
180 20 15 45 78 57 146 6 30 -15 112 -27 108 -2 -1 -12 -4 -23 -6z"/>
<path d="M24819 18614 c-12 -13 -28 -24 -35 -24 -7 0 -34 -20 -61 -45 -26 -24
-56 -45 -65 -45 -10 0 -18 -5 -18 -10 0 -6 -12 -23 -26 -37 -18 -17 -22 -29
-15 -36 7 -7 15 -6 26 3 8 7 15 9 15 5 0 -4 11 4 25 19 14 15 34 28 45 29 11
1 20 7 20 13 0 7 16 18 35 25 19 7 35 19 35 26 0 7 10 13 23 13 21 1 21 1 3
15 -26 20 -15 39 22 39 17 1 31 5 31 11 0 5 8 12 18 16 12 4 5 7 -19 7 -26 0
-43 -7 -59 -24z"/>
<path d="M24495 18342 c-3 -11 -25 -27 -50 -37 -36 -15 -46 -26 -60 -62 -12
-30 -26 -48 -44 -54 -49 -19 -70 -47 -64 -87 4 -25 3 -33 -5 -28 -7 4 -12 15
-12 24 0 11 -3 13 -11 5 -8 -8 -6 -21 6 -46 20 -42 42 -55 41 -23 -1 15 4 20
17 18 12 -2 19 6 23 28 4 17 15 36 25 43 9 7 23 25 30 40 11 24 17 27 41 22
18 -4 28 -3 28 5 0 6 7 18 15 27 12 11 19 12 29 4 11 -9 15 -7 19 9 3 11 9 20
14 19 26 -5 32 2 23 25 -9 25 3 46 28 46 12 0 12 3 2 15 -7 8 -24 14 -39 13
-15 -1 -32 1 -38 5 -7 4 -14 -1 -18 -11z"/>
<path d="M26397 15531 c-39 -58 -71 -174 -57 -201 13 -24 -1 -50 -26 -50 -8 0
-14 -1 -14 -2 -1 -2 -3 -21 -6 -43 -3 -22 -12 -53 -21 -70 -8 -16 -16 -56 -18
-89 -2 -32 -8 -63 -14 -69 -6 -6 -11 -18 -10 -26 0 -9 10 4 22 28 26 53 54 69
43 26 -4 -15 -18 -44 -32 -64 -13 -19 -24 -42 -24 -51 0 -8 -5 -22 -11 -30 -8
-12 -9 -10 -4 8 7 25 -10 31 -19 6 -3 -9 -6 -55 -6 -102 l0 -87 35 -24 c20
-13 35 -32 35 -43 0 -18 30 -59 30 -41 0 4 4 2 9 -6 6 -9 6 -24 0 -38 -15 -40
-11 -100 7 -107 22 -9 23 -8 16 16 -4 16 -2 20 10 15 13 -5 15 1 11 34 -4 26
-2 39 6 39 22 0 23 -30 3 -90 -19 -56 -20 -61 -4 -69 31 -17 24 -165 -13 -266
-8 -22 -21 -88 -29 -145 -8 -58 -21 -145 -30 -195 -8 -49 -22 -142 -31 -205
-18 -130 -67 -409 -90 -515 -8 -38 -20 -106 -25 -150 -13 -98 -75 -534 -95
-667 -8 -53 -15 -112 -15 -130 0 -18 -7 -45 -14 -60 -11 -20 -12 -28 -3 -28
25 0 40 19 42 52 4 72 27 286 35 328 5 25 20 77 35 115 29 76 52 178 85 375
20 123 30 175 55 315 l13 70 1 -68 c1 -38 5 -66 10 -63 5 4 7 -4 3 -16 -3 -14
-2 -19 6 -14 8 5 12 0 12 -13 0 -11 -4 -23 -10 -26 -5 -3 -10 -16 -10 -28 0
-18 2 -19 11 -7 8 12 9 9 5 -12 -3 -14 -1 -37 4 -50 l11 -23 -5 23 c-4 19 -2
21 10 11 12 -9 14 -6 14 18 0 16 6 37 14 48 13 20 27 89 30 153 0 17 4 32 7
32 11 0 3 105 -14 178 -9 40 -17 88 -16 105 0 28 2 25 14 -18 19 -71 32 -102
46 -111 9 -5 10 0 3 22 -10 32 -9 393 1 594 10 218 23 294 70 433 60 180 64
200 74 329 6 71 17 137 31 176 12 35 19 66 16 69 -3 3 -10 -7 -16 -23 -22 -60
-25 -57 -28 25 -3 79 -1 89 33 160 20 42 48 91 62 109 24 33 25 34 6 54 -10
11 -58 53 -108 93 -49 40 -99 82 -109 94 -11 11 -22 21 -26 21 -4 0 -19 -17
-33 -39z"/>
<path d="M19536 12968 c44 -37 149 -137 629 -603 571 -554 625 -607 760 -735
72 -68 136 -129 144 -136 12 -11 12 -16 -2 -38 -18 -27 -22 -46 -9 -46 4 0 13
14 20 32 l12 32 92 -89 c223 -214 302 -290 453 -432 215 -202 248 -239 241
-267 -4 -18 5 -33 44 -70 28 -26 50 -52 50 -58 0 -6 -16 -8 -36 -6 l-35 4 23
-18 c29 -22 41 -22 61 0 34 37 18 88 -38 120 -19 12 -48 43 -65 70 -16 27
-105 121 -197 208 -332 315 -600 570 -718 684 -66 64 -183 176 -260 250 -184
177 -757 733 -960 931 -146 142 -214 199 -239 199 -5 0 8 -15 30 -32z"/>
<path d="M24942 11705 c-26 -11 -26 -12 -4 -17 13 -4 22 -2 23 5 2 28 28 -51
29 -85 0 -34 -3 -38 -25 -38 -14 0 -25 -5 -25 -11 0 -7 11 -8 29 -4 34 7 36 5
45 -57 7 -47 6 -48 -18 -48 -14 0 -26 -5 -26 -11 0 -6 11 -8 29 -4 24 5 29 2
35 -17 10 -40 7 -54 -16 -55 -11 -1 -24 -6 -27 -11 -9 -13 -142 -45 -180 -43
-19 1 -40 6 -48 12 -18 16 -18 -22 1 -59 7 -15 16 -58 20 -96 l7 -69 -29 6
c-21 4 -34 1 -46 -12 -12 -14 -28 -17 -61 -15 -24 2 -47 -1 -50 -6 -9 -15
-119 -65 -197 -90 -36 -11 -101 -23 -144 -25 -44 -2 -127 -6 -186 -9 -59 -2
-113 -8 -120 -12 -25 -16 -105 -23 -135 -12 -13 4 -25 3 -29 -3 -3 -6 -15 -8
-26 -6 -11 3 -31 2 -44 -3 -14 -6 -26 -6 -29 1 -4 5 -10 7 -15 4 -4 -3 -13 1
-19 9 -6 7 -29 16 -51 20 -33 5 -40 10 -40 29 0 19 -11 25 -74 45 -43 13 -84
33 -99 48 -17 17 -32 24 -43 20 -10 -4 -20 -2 -24 4 -10 17 -232 19 -237 3 -3
-7 -11 -13 -19 -13 -8 0 -22 -4 -32 -10 -9 -5 -47 -23 -83 -39 -68 -31 -74
-39 -94 -133 -3 -15 -19 -56 -35 -91 -17 -36 -30 -70 -30 -75 0 -6 -9 -14 -20
-17 -25 -8 -17 -25 12 -25 17 0 18 -2 8 -15 -14 -17 -17 -17 75 -5 41 5 74 5
80 0 7 -6 23 -6 41 -1 16 5 25 10 19 10 -24 3 23 21 50 20 30 -2 30 -2 -5 -9
-35 -7 -35 -7 -5 -9 17 0 57 3 90 8 126 19 165 22 165 11 0 -5 -8 -10 -17 -10
-18 0 -247 -37 -405 -66 -47 -9 -91 -13 -96 -10 -6 3 -13 2 -16 -3 -3 -5 -36
-14 -73 -20 -38 -7 -88 -17 -113 -22 -25 -5 -65 -12 -90 -14 -64 -7 -181 -23
-278 -38 -76 -13 -84 -12 -90 3 -5 12 -14 14 -32 9 -16 -4 -19 -7 -7 -8 58 -3
-42 -42 -106 -41 -18 1 -16 4 13 20 42 23 19 26 -40 5 -58 -21 -73 -34 -59
-51 6 -8 9 -14 5 -14 -3 0 -1 -11 3 -24 8 -20 5 -27 -20 -45 -34 -25 -34 -31
-12 -124 l17 -70 -29 -21 c-15 -12 -56 -44 -89 -72 -176 -146 -267 -215 -276
-209 -5 3 -10 15 -10 25 0 10 -5 20 -12 22 -6 2 -12 29 -14 61 -5 91 -11 94
-77 39 -34 -28 -57 -55 -57 -67 0 -11 9 -54 20 -95 11 -41 20 -82 20 -91 0
-10 -32 -45 -71 -80 -64 -57 -73 -61 -84 -46 -20 28 -40 20 -89 -34 l-46 -51
-10 28 c-15 38 -9 58 18 62 29 4 29 22 0 22 -20 1 -17 6 25 45 28 26 54 42 62
38 11 -4 15 2 15 23 0 63 -14 62 -94 -10 -42 -37 -76 -72 -76 -76 0 -5 9 -46
20 -92 11 -46 20 -91 20 -100 0 -9 -65 -72 -144 -140 -80 -68 -144 -127 -142
-133 4 -17 56 -17 81 -1 46 30 201 88 254 96 34 4 78 3 112 -4 l57 -12 17 85
c57 299 164 441 420 557 48 22 74 28 135 28 93 0 195 -28 186 -50 -3 -9 -6
-17 -6 -20 0 -2 -7 -1 -15 2 -10 4 -15 0 -15 -16 0 -11 -4 -19 -9 -16 -5 3
-11 -4 -15 -17 -5 -18 -8 -19 -15 -8 -7 11 -13 12 -23 4 -8 -6 -45 -9 -94 -7
-65 3 -84 1 -94 -11 -20 -24 1 -54 99 -140 47 -42 96 -85 108 -97 13 -11 20
-25 16 -31 -3 -6 -1 -7 6 -3 7 5 22 -3 36 -20 l24 -28 -20 -31 c-11 -16 -27
-45 -35 -64 -8 -18 -26 -50 -39 -70 -20 -29 -25 -55 -31 -138 -4 -57 -10 -103
-15 -103 -4 0 -31 35 -60 78 -88 131 -182 246 -193 235 -7 -7 -9 12 -6 42 1
11 -1 17 -6 13 -4 -4 -14 -2 -22 4 -21 18 -40 18 -47 0 -5 -14 -7 -14 -15 -2
-16 25 -4 -64 12 -96 9 -16 24 -47 34 -68 35 -73 52 -102 68 -115 9 -8 16 -19
16 -26 0 -7 11 -24 25 -39 14 -15 25 -32 25 -37 0 -6 11 -25 25 -43 14 -18 25
-41 25 -50 0 -9 4 -15 9 -12 5 4 7 -11 4 -34 -4 -30 -2 -41 10 -46 9 -3 19
-22 23 -42 4 -21 11 -42 16 -49 5 -7 6 -18 2 -24 -4 -7 -3 -9 3 -6 23 15 32
-18 18 -63 -7 -25 -14 -40 -14 -33 -1 7 -8 10 -16 7 -10 -4 -16 3 -21 23 -10
45 -31 85 -66 124 -60 67 -130 159 -150 199 -7 14 -18 31 -25 38 -7 7 -13 20
-13 28 0 8 -4 14 -10 14 -5 0 -10 6 -10 13 0 7 -9 23 -20 35 -11 12 -20 26
-20 32 0 5 -4 10 -8 10 -15 0 -13 -91 4 -148 9 -31 18 -69 20 -85 2 -15 7 -33
11 -40 12 -19 33 -80 33 -99 0 -9 5 -18 11 -20 6 -2 13 -16 14 -31 2 -16 10
-39 19 -52 9 -13 16 -31 16 -40 0 -8 4 -15 9 -15 5 0 14 -22 21 -49 6 -27 18
-52 26 -55 9 -3 12 -16 10 -35 -2 -17 0 -28 4 -26 10 6 21 -22 14 -38 -2 -7 4
-24 16 -37 11 -13 20 -32 20 -42 0 -11 4 -17 9 -14 12 8 25 -64 13 -76 -6 -6
-12 2 -15 21 -9 42 -24 39 -29 -5 -3 -27 0 -38 14 -45 12 -6 18 -21 18 -42 0
-18 5 -50 11 -72 6 -22 11 -47 11 -55 0 -8 5 -20 10 -27 14 -17 0 -285 -18
-345 -5 -15 -9 -14 -29 10 l-24 27 -1 -32 c0 -17 -5 -33 -11 -35 -18 -6 -1
-168 18 -168 8 0 12 -4 9 -8 -2 -4 -7 -52 -11 -107 -3 -55 -8 -111 -11 -125
-20 -106 -34 -195 -40 -252 -4 -41 -10 -58 -20 -58 -8 0 -14 10 -15 23 -2 57
-21 -45 -25 -138 -3 -55 -5 -107 -6 -115 0 -8 3 -24 7 -34 5 -12 5 -17 -1 -13
-5 3 -10 -19 -11 -51 -1 -75 -35 -353 -74 -612 -38 -247 -83 -466 -101 -485
-19 -21 -25 22 -26 193 0 180 -5 225 -42 392 -12 52 -27 124 -33 159 -7 36
-18 66 -24 68 -7 3 -9 11 -6 19 3 7 -2 17 -10 20 -13 5 -14 9 -4 25 10 16 9
21 -2 28 -8 5 -11 16 -8 24 3 9 -6 28 -24 47 -30 31 -52 32 -48 2 2 -10 -3
-43 -10 -76 -11 -50 -11 -61 2 -73 11 -11 12 -24 6 -51 -4 -21 -4 -39 1 -42 6
-4 5 -21 -1 -44 -6 -21 -8 -40 -5 -44 3 -3 1 -11 -4 -17 -12 -15 -1 -77 12
-69 10 7 -12 -38 -24 -46 -4 -3 -3 -12 2 -20 8 -13 10 -12 10 3 0 9 5 17 11
17 6 0 8 -9 3 -22 -7 -22 -10 -48 -17 -160 -2 -27 -7 -51 -10 -55 -4 -3 -2
-12 4 -19 6 -7 6 -14 1 -18 -6 -3 -8 -22 -5 -42 3 -24 0 -39 -9 -45 -11 -7
-11 -9 1 -9 9 0 11 -7 6 -22 -4 -13 -8 -48 -10 -78 -3 -75 -14 -140 -28 -168
-9 -18 -8 -25 3 -32 16 -10 48 8 54 30 3 11 4 10 5 -3 0 -10 5 -16 10 -12 15
9 24 -15 11 -30 -6 -8 -9 -19 -5 -25 3 -5 -1 -17 -9 -26 -9 -9 -16 -32 -16
-54 0 -21 -4 -41 -9 -44 -8 -5 -14 -29 -26 -101 -8 -46 -37 -119 -52 -131 -8
-7 -10 -14 -5 -15 10 -4 -7 -80 -29 -134 -7 -16 -11 -34 -10 -40 2 -5 4 -23 6
-40 2 -16 3 -34 4 -39 2 -19 89 127 111 186 35 96 87 183 117 197 21 10 22 9
12 -17 -16 -39 -39 -153 -34 -162 3 -4 -2 -13 -10 -20 -8 -7 -17 -28 -21 -49
-3 -20 -12 -56 -20 -81 -8 -25 -16 -64 -18 -85 -2 -22 -7 -48 -11 -57 -4 -11
-3 -18 4 -18 18 0 13 -35 -9 -62 -19 -25 -38 -66 -45 -98 -2 -8 -8 -35 -14
-60 -6 -28 -7 -46 -1 -48 6 -2 10 -8 10 -14 0 -6 -7 -8 -15 -4 -16 6 -21 -18
-17 -76 2 -21 -3 -28 -15 -29 -11 0 -13 -3 -5 -6 16 -6 15 -27 -2 -61 -7 -15
-16 -45 -19 -67 -8 -55 -26 -102 -35 -88 -5 8 -21 9 -57 1 -28 -5 -68 -9 -90
-9 -51 1 -145 22 -145 32 0 4 4 41 9 81 5 40 15 123 21 183 21 194 74 502 106
607 4 13 1 16 -10 12 -9 -3 -16 -15 -16 -25 0 -27 -28 -24 -33 4 -4 19 -4 18
-6 -5 0 -16 -10 -37 -21 -48 -21 -21 -27 -35 -11 -25 5 3 12 1 16 -5 3 -6 -1
-12 -9 -15 -45 -14 -51 -17 -38 -22 17 -7 15 -21 -4 -25 -26 -5 -43 -88 -49
-238 -4 -74 -8 -137 -11 -141 -2 -4 1 -43 7 -86 11 -75 10 -85 -14 -164 -15
-46 -29 -104 -32 -129 -11 -98 -16 -134 -20 -140 -7 -12 -8 -95 -1 -117 11
-36 -24 -63 -81 -63 -60 0 -117 -16 -134 -36 -11 -13 -10 -21 4 -46 9 -16 17
-37 17 -47 0 -33 71 -87 145 -110 39 -12 110 -41 159 -64 l88 -41 -6 -51 c-10
-78 -37 -194 -47 -201 -5 -3 -9 -19 -9 -35 0 -17 -5 -39 -11 -50 -6 -11 -12
-29 -14 -41 -2 -11 -18 -41 -35 -67 -16 -26 -30 -54 -30 -62 0 -8 -7 -25 -16
-37 -14 -21 -14 -23 10 -34 15 -6 26 -14 26 -17 0 -4 14 -15 30 -25 l30 -17
53 38 c197 144 313 237 325 259 11 21 18 24 42 19 24 -5 30 -2 41 24 14 31 29
41 29 19 0 -6 -10 -22 -22 -36 -21 -22 -22 -24 -5 -33 17 -10 70 -63 92 -91 6
-7 16 -21 24 -31 11 -14 11 -21 3 -29 -9 -9 -12 -9 -12 0 0 7 -7 12 -15 12 -8
0 -19 9 -25 20 -6 11 -19 20 -30 20 -10 0 -22 5 -25 10 -10 16 -45 -8 -45 -30
0 -11 -6 -20 -14 -20 -8 0 -19 -13 -25 -30 -7 -23 -16 -30 -35 -30 -19 0 -27
-7 -32 -26 -4 -15 -12 -23 -19 -20 -9 3 -11 -2 -7 -16 4 -17 2 -20 -13 -15
-21 9 -46 -9 -39 -28 7 -18 -31 -38 -56 -30 -14 5 -30 -5 -60 -35 -22 -22 -40
-45 -40 -51 0 -20 -30 -20 -57 -1 -43 30 -113 63 -113 54 0 -5 40 -47 90 -93
49 -46 90 -87 90 -91 0 -5 -13 -8 -30 -8 -19 0 -30 5 -30 14 0 24 -55 56 -94
56 -22 0 -36 5 -36 13 0 8 -17 12 -50 12 -28 0 -50 -2 -50 -5 0 -3 -8 -6 -17
-7 -43 -3 -63 -8 -63 -15 0 -4 26 -25 58 -47 71 -50 67 -46 127 -116 64 -73
69 -88 16 -45 -23 19 -53 42 -67 51 -13 9 -21 18 -18 21 3 4 -3 9 -14 12 -11
4 -23 13 -26 21 -2 7 -15 19 -28 26 -21 11 -22 11 -10 -4 8 -9 11 -21 7 -27
-3 -5 -1 -10 4 -10 15 0 14 -27 -1 -36 -6 -4 -8 -3 -5 3 4 6 0 14 -9 17 -8 3
-12 2 -9 -4 3 -6 2 -10 -4 -10 -5 0 -13 5 -16 10 -3 6 -12 10 -18 10 -8 0 -7
-3 2 -9 9 -6 0 -11 -30 -16 -24 -4 -46 -10 -49 -14 -10 -13 -87 -61 -97 -61
-6 0 -16 -7 -24 -16 -7 -9 -27 -23 -45 -32 -18 -9 -58 -30 -90 -46 -31 -17
-59 -38 -62 -48 -2 -10 -13 -18 -26 -18 -53 0 -183 -90 -142 -98 39 -8 7 -29
-34 -23 -38 6 -80 7 -80 2 0 -3 19 -19 43 -36 48 -34 143 -132 135 -141 -3 -3
-32 19 -64 49 -61 55 -131 105 -174 124 -20 8 -28 7 -38 -4 -8 -7 -21 -11 -31
-8 -9 2 -31 1 -48 -4 -17 -5 -34 -7 -37 -3 -4 3 -145 7 -314 9 -273 3 -318 2
-408 -16 -55 -10 -118 -26 -139 -35 l-38 -16 23 -20 c13 -11 27 -20 32 -20 20
0 5 -19 -24 -31 -18 -7 -34 -13 -36 -14 -1 -1 2 -14 7 -28 8 -21 7 -26 -12
-32 -22 -6 -22 -6 -2 -15 19 -8 19 -9 0 -9 -28 -1 -6 -19 33 -27 25 -5 32 -3
32 9 0 9 5 19 10 22 6 4 10 -7 10 -24 0 -26 -4 -31 -24 -31 -14 0 -28 5 -31
10 -7 12 -25 4 -25 -11 0 -5 8 -9 18 -9 10 0 23 -5 30 -12 7 -7 12 -9 12 -5 0
4 14 0 30 -8 17 -9 28 -20 25 -25 -10 -16 22 -12 38 5 19 18 31 7 14 -13 -10
-13 -9 -15 12 -9 34 8 87 -3 69 -15 -9 -7 -7 -8 7 -4 22 6 159 -24 194 -43 12
-7 39 -11 59 -10 20 1 50 -3 65 -10 16 -6 34 -11 42 -11 7 0 15 -3 17 -7 5
-12 133 -53 165 -54 15 0 37 -4 48 -9 14 -6 -2 -9 -50 -9 -200 -2 -586 102
-825 222 -85 42 -85 42 -84 80 1 20 -1 37 -4 37 -30 0 -215 -36 -254 -49 -54
-18 -75 -41 -39 -41 12 0 22 -4 23 -10 4 -30 1 -35 -26 -40 -31 -5 -49 -30
-22 -30 10 0 16 -9 16 -22 0 -13 3 -33 6 -46 5 -18 2 -22 -17 -22 -14 0 -19
-4 -14 -9 11 -10 89 -22 153 -23 23 0 42 -4 42 -9 0 -5 14 -9 30 -9 17 0 30
-5 30 -11 0 -8 -17 -10 -52 -6 -29 3 -47 3 -40 0 16 -6 15 -23 -2 -23 -8 0
-16 7 -20 15 -4 10 -18 15 -48 14 -24 -1 -33 -4 -20 -6 12 -2 22 -10 22 -18 0
-8 17 -16 40 -20 50 -8 62 -25 19 -25 -26 0 -30 -3 -21 -12 7 -7 27 -11 46
-10 23 2 36 -3 40 -13 7 -19 35 -19 60 0 13 10 25 11 43 4 32 -12 67 -11 37 1
-12 5 -25 13 -29 19 -10 17 51 13 65 -4 7 -8 20 -15 29 -15 14 0 14 2 1 10
-15 9 -16 9 35 25 9 2 15 -2 15 -10 0 -8 -4 -15 -10 -15 -19 0 -10 -18 11 -23
12 -3 32 1 45 10 14 8 35 13 50 10 17 -3 28 0 31 10 7 18 -13 33 -44 33 -13 0
-23 5 -23 11 0 5 4 7 10 4 24 -15 289 -25 334 -12 24 7 27 5 23 -7 -5 -12 0
-16 21 -16 16 0 34 6 41 13 11 10 14 10 18 0 3 -8 25 -13 59 -13 32 0 53 4 49
9 -3 5 -1 12 5 16 5 3 10 -3 10 -13 0 -23 -17 -29 -121 -39 -51 -5 -66 -9 -49
-13 25 -7 25 -7 -5 -13 -16 -3 -68 -11 -115 -17 -112 -14 -168 -29 -174 -46
-3 -8 -12 -14 -20 -14 -8 0 -16 -5 -18 -11 -3 -8 -29 -6 -88 6 -53 11 -85 14
-88 7 -1 -5 -12 -8 -22 -5 -12 3 -20 0 -20 -7 0 -6 -8 -9 -17 -6 -10 3 -25 1
-33 -5 -12 -9 -11 -10 8 -6 14 3 22 0 22 -9 0 -20 27 -31 100 -39 36 -4 59
-10 52 -12 -6 -3 -9 -9 -6 -14 3 -5 0 -31 -7 -58 -9 -36 -9 -52 0 -67 10 -17
10 -16 5 9 -4 17 0 41 12 65 10 20 20 55 23 77 6 39 7 40 59 49 39 7 59 6 77
-4 17 -9 28 -10 37 -3 7 6 40 14 73 18 33 4 72 13 87 21 17 9 42 12 71 8 44
-6 45 -6 58 29 12 34 14 35 75 42 35 3 87 8 116 10 29 2 84 10 123 18 38 9 72
14 74 12 2 -3 -2 -11 -9 -20 -11 -13 -9 -15 11 -15 20 0 24 5 25 30 2 44 12
48 38 15 l24 -30 48 25 c36 18 70 26 125 28 73 4 78 3 110 -26 l34 -30 447 -6
c246 -3 454 -3 463 0 12 5 13 9 4 21 -17 20 -4 29 67 47 76 20 84 20 84 1 0
-8 9 -15 19 -15 22 0 33 -21 20 -41 -5 -8 -9 -16 -9 -19 0 -10 195 1 217 12
12 6 35 7 55 3 45 -10 236 -18 264 -11 21 6 22 9 11 39 -6 18 -13 25 -14 17
-3 -12 -14 -15 -44 -12 -59 6 -43 26 27 33 53 5 50 7 -21 13 -15 1 -20 7 -18
29 1 15 -1 27 -5 27 -4 0 -5 23 -3 51 4 60 24 75 54 38 28 -34 77 -135 70
-143 -4 -3 32 -7 78 -7 46 -1 76 -3 65 -6 -15 -4 -17 -11 -13 -38 4 -21 1 -35
-6 -38 -14 -4 91 -14 259 -23 117 -6 122 -6 133 15 6 11 25 28 42 36 28 15 33
15 67 -2 50 -25 55 -46 8 -38 -22 5 -36 3 -36 -3 0 -5 17 -9 38 -9 32 2 37 5
37 26 0 13 9 29 20 35 11 6 23 15 27 21 5 6 11 6 18 -1 9 -9 3 -15 -22 -24
l-33 -13 31 -7 c37 -8 56 -19 50 -28 -2 -4 42 -7 97 -6 56 0 107 -3 112 -7 12
-9 140 -10 170 -2 18 5 18 7 -5 16 -14 5 -41 10 -60 11 -24 1 -34 6 -32 15 1
7 -2 19 -8 25 -5 7 -7 16 -3 19 3 4 1 7 -5 7 -7 0 -12 -5 -12 -11 0 -5 -5 -7
-10 -4 -7 4 -6 13 1 27 9 18 18 20 65 16 30 -3 54 -1 54 3 0 5 11 11 24 15 28
7 32 25 36 194 2 63 4 133 4 155 1 22 10 52 19 66 39 59 44 241 12 399 -15 70
-115 373 -140 420 -15 29 -47 46 -65 35 -6 -4 -17 -1 -25 5 -12 10 -15 9 -15
-4 0 -36 -28 -14 -40 31 -50 194 -70 351 -50 388 11 21 11 27 -4 44 -24 27
-18 182 9 211 18 20 18 21 -5 45 -24 26 -24 26 -6 60 10 19 16 41 12 50 -3 9
9 80 28 158 40 163 66 328 66 413 0 33 7 104 15 159 36 246 54 410 59 540 3
77 12 181 21 230 8 50 15 144 15 210 0 101 4 133 26 200 23 73 25 89 19 190
-5 90 -3 125 13 195 11 47 23 114 26 150 4 36 13 97 21 135 36 191 59 384 75
620 18 274 20 309 27 350 3 22 6 126 7 230 1 127 5 197 13 211 l12 21 101 -18
c160 -29 323 -48 475 -55 143 -6 587 9 795 27 63 6 286 14 495 19 276 7 405
14 470 26 53 9 161 17 265 19 96 2 216 9 265 16 132 17 130 18 131 -71 1 -41
3 -133 5 -205 l3 -130 5 94 c4 64 10 96 19 99 7 2 12 0 11 -5 -3 -18 2 -33 11
-33 6 0 10 12 11 28 0 15 4 36 9 47 7 17 9 16 9 -10 1 -26 20 -75 21 -52 0 5
7 1 16 -7 20 -21 34 -20 34 1 0 9 10 27 21 40 17 17 22 35 22 80 0 32 3 60 6
63 4 3 14 30 23 61 14 51 14 59 0 89 -13 28 -14 38 -2 79 7 25 14 56 15 69 1
12 7 28 13 34 7 7 12 22 12 35 0 28 14 29 41 4 15 -13 18 -26 14 -50 -3 -18 1
-43 8 -59 14 -28 17 -185 4 -198 -4 -4 -1 -14 6 -22 6 -8 12 -25 13 -36 0 -12
2 -43 3 -71 l3 -50 12 35 c20 59 38 89 63 105 12 9 23 11 23 5 0 -17 18 -11
23 8 3 13 7 10 16 -12 6 -16 10 -35 7 -43 -3 -7 0 -12 6 -10 11 2 30 -51 23
-64 -3 -4 1 -18 8 -32 12 -24 13 -21 14 36 0 34 6 75 12 92 7 16 13 47 13 67
0 37 7 46 22 31 4 -5 13 -8 19 -8 7 0 12 -6 12 -12 0 -7 4 -14 8 -15 12 -4 37
71 30 90 -4 8 2 21 12 28 10 7 16 21 13 31 -3 10 1 24 9 31 10 10 13 10 13 0
0 -20 18 5 23 32 4 21 4 20 6 -7 2 -54 21 -37 22 20 0 48 15 148 18 119 1 -8
9 -10 27 -6 25 7 27 5 20 -22 -6 -27 -5 -28 9 -10 8 11 15 26 15 33 0 7 4 13
10 13 5 0 9 -8 8 -17 -1 -10 0 -26 0 -35 2 -16 4 -16 22 2 11 11 20 25 20 30
0 6 5 10 10 10 6 0 10 -7 10 -16 0 -13 3 -14 15 -4 21 17 35 3 35 -36 0 -19 4
-34 9 -34 11 0 33 52 35 83 1 20 5 23 21 17 25 -9 33 -40 10 -40 -9 0 -14 -4
-10 -9 9 -15 46 -9 41 6 -7 17 4 44 14 38 4 -3 10 11 12 30 2 19 1 35 -4 35
-4 0 -5 7 -1 16 3 8 12 13 19 10 8 -3 14 0 14 7 0 7 -15 13 -35 14 -34 2 -35
1 -41 -48 -7 -48 -19 -63 -30 -34 -4 8 -11 12 -17 8 -6 -4 -8 0 -4 10 4 10 0
20 -10 26 -15 8 -15 10 0 26 9 9 17 20 17 25 0 13 32 17 57 9 17 -6 26 -2 42
19 15 20 20 23 21 10 0 -13 7 -16 30 -13 20 3 33 -1 36 -10 3 -8 12 -11 21 -8
13 5 15 2 9 -18 -3 -13 -8 -35 -10 -49 -2 -14 -1 -18 1 -9 2 9 15 27 29 40 20
19 24 20 24 5 0 -9 7 -19 15 -22 8 -4 15 -11 15 -16 0 -6 -7 -7 -16 -4 -8 3
-12 2 -9 -4 3 -6 13 -10 21 -10 8 0 14 -9 14 -21 0 -11 4 -18 9 -15 5 4 5 -9
1 -30 -11 -49 5 -87 34 -78 20 6 20 6 -1 -13 -13 -11 -23 -24 -23 -28 0 -4
-12 -19 -26 -32 -25 -23 -27 -23 -40 -6 -7 10 -14 27 -14 38 -1 18 -1 19 -11
3 -7 -12 -6 -24 2 -39 9 -19 9 -21 -4 -16 -9 3 -21 -1 -27 -9 -7 -8 -8 -14 -2
-14 19 0 23 -44 4 -60 -19 -17 -85 -140 -78 -147 4 -4 86 111 86 121 0 9 32
47 55 65 44 35 228 231 370 394 64 72 76 82 99 78 4 -1 14 4 22 10 11 9 14 8
14 -5 0 -15 2 -15 25 0 14 9 22 20 19 25 -3 5 4 9 14 9 11 0 27 10 35 23 13
17 18 19 25 8 7 -9 12 -10 16 -2 11 18 26 13 36 -11 7 -19 9 -20 9 -5 1 10 -4
27 -9 37 -12 22 5 38 17 16 4 -8 10 -15 13 -16 41 -8 50 -14 45 -31 -5 -16 -3
-16 19 -6 27 13 36 30 11 21 -16 -6 -20 13 -7 31 16 22 55 36 82 30 22 -5 29
-13 34 -41 4 -19 4 -38 1 -43 -7 -12 5 -41 17 -41 5 0 6 15 2 35 -4 23 -2 35
5 35 6 0 11 -5 11 -12 0 -9 3 -9 12 0 7 7 20 12 29 12 10 0 20 6 22 13 3 6 6
0 6 -15 1 -22 -4 -28 -19 -28 -13 0 -20 -7 -20 -20 0 -25 23 -17 40 15 12 23
15 23 46 10 28 -11 35 -11 45 1 6 7 16 11 21 8 6 -4 5 3 -1 15 -14 26 -27 27
-40 4 -6 -10 -11 -12 -11 -5 0 6 -7 12 -17 12 -23 0 -12 9 18 14 13 2 25 5 27
7 1 1 6 2 11 3 5 0 13 4 17 8 10 10 25 10 22 1 -1 -5 3 -18 10 -31 15 -26 8
-42 -17 -42 -11 0 -21 -10 -25 -22 -10 -38 -7 -44 10 -19 13 18 23 22 47 18
23 -3 31 0 35 15 5 22 15 23 32 3 11 -14 15 -13 28 6 10 15 21 19 38 15 41
-11 23 42 -24 69 -15 9 -20 14 -11 11 9 -2 22 1 28 7 8 8 11 5 11 -12 0 -19 4
-22 20 -18 17 4 20 2 15 -14 -4 -11 -2 -19 5 -19 7 0 14 10 17 21 6 21 6 21
24 -2 19 -24 19 -24 19 -2 0 12 -4 24 -10 28 -10 6 8 55 21 55 4 0 14 3 22 6
10 3 18 -3 23 -18 4 -13 5 -24 3 -25 -2 -2 6 -10 19 -18 25 -18 30 -40 6 -31
-12 5 -14 1 -9 -15 5 -14 0 -28 -14 -43 -14 -15 -17 -26 -11 -36 9 -13 10 -13
10 0 0 18 47 90 59 90 11 0 31 -46 24 -54 -14 -14 -25 -4 -20 17 6 21 6 21 -8
3 -26 -34 -16 -73 11 -46 10 10 24 -9 38 -52 6 -20 26 -25 26 -7 0 6 10 19 23
29 18 15 20 22 11 37 -7 10 -18 17 -27 15 -8 -1 -17 7 -20 18 -3 11 -1 20 3
20 5 0 11 15 13 33 l4 32 1 -32 c1 -18 7 -33 12 -33 6 0 10 -8 11 -17 0 -11 3
-13 6 -5 8 19 21 14 25 -10 3 -21 4 -21 21 -4 10 10 26 16 37 13 12 -3 21 1
23 12 4 13 5 13 6 -3 1 -15 4 -16 16 -6 14 11 14 10 5 -14 -5 -15 -10 -37 -10
-49 0 -12 -13 -33 -29 -47 -28 -24 -28 -26 -14 -60 12 -29 16 -32 24 -18 5 9
18 15 29 13 13 -3 23 5 32 26 7 16 16 29 20 29 4 0 8 12 10 28 2 20 9 27 25
28 20 1 22 -2 16 -25 -3 -14 -10 -32 -16 -39 -5 -7 -8 -15 -5 -18 3 -2 13 7
22 21 9 14 23 25 31 25 18 0 38 46 28 63 -4 6 -10 1 -15 -13 l-9 -24 -16 24
c-10 14 -17 34 -18 45 0 31 -58 34 -73 3 l-11 -23 0 27 c-1 15 4 30 9 33 6 4
8 16 4 27 -5 16 -3 20 10 15 8 -3 28 0 43 8 25 13 29 13 39 0 6 -8 14 -12 17
-8 4 3 7 1 7 -5 0 -7 -5 -12 -11 -12 -5 0 -7 -5 -4 -11 4 -6 9 -8 12 -5 7 7
32 -17 26 -26 -2 -5 1 -8 7 -8 7 0 10 7 7 15 -8 20 6 27 35 16 19 -7 26 -3 42
23 11 17 19 37 18 44 -2 6 4 12 12 12 10 0 13 -8 10 -30 -3 -19 1 -38 11 -52
16 -22 17 -22 11 -2 -4 13 -1 26 9 34 9 8 15 8 15 2 0 -24 31 -41 63 -35 18 3
29 2 25 -2 -4 -5 -3 -14 3 -22 9 -10 15 -10 25 -2 10 8 14 8 14 1 0 -6 -7 -15
-16 -20 -14 -8 -14 -12 -3 -30 17 -27 28 -28 27 -4 -1 21 7 59 20 92 7 19 9 8
8 -47 0 -50 -4 -74 -13 -77 -19 -8 -16 -23 7 -29 11 -3 18 -1 14 4 -3 5 1 9
10 9 8 0 17 6 20 13 4 6 4 -5 2 -25 -4 -32 -2 -38 15 -38 11 0 19 7 19 16 0
10 6 14 15 10 20 -7 19 14 -2 43 -9 14 -11 21 -5 17 8 -5 14 3 18 23 4 20 11
28 20 24 8 -3 14 -11 14 -19 0 -17 17 -18 23 -1 2 6 7 -11 11 -40 4 -29 5 -56
2 -61 -3 -6 4 -12 15 -15 17 -5 20 -2 16 14 -3 12 0 19 9 19 8 0 14 -8 14 -17
1 -15 4 -14 20 5 16 19 23 21 40 12 11 -6 20 -14 20 -18 0 -4 14 -7 30 -8 20
-1 30 4 30 13 0 8 5 11 10 8 6 -3 10 -1 10 4 0 6 7 11 15 11 8 0 15 -7 15 -16
0 -9 5 -14 12 -12 18 6 22 28 5 28 -15 0 -27 35 -20 57 2 6 12 9 22 6 11 -3
29 0 41 7 28 15 37 6 16 -16 -23 -22 -15 -39 20 -41 16 -1 24 0 18 3 -18 8 -4
46 13 40 8 -3 17 -6 19 -6 2 0 4 -11 4 -24 0 -16 -7 -27 -20 -31 -22 -7 -23
-10 -10 -40 8 -19 9 -19 9 3 1 15 7 22 22 22 12 0 23 8 26 20 6 21 18 26 28
11 3 -5 -1 -16 -9 -24 -9 -9 -12 -23 -8 -38 6 -23 6 -23 12 5 6 37 27 45 40
14 10 -21 10 -20 6 9 -5 30 16 54 29 33 5 -8 42 -6 51 3 2 2 -1 18 -7 36 -6
18 -9 45 -5 61 5 27 -1 35 -21 28 -10 -4 -11 -38 -1 -38 15 0 8 -27 -13 -51
-15 -16 -23 -20 -26 -11 -5 14 -33 17 -33 3 0 -5 5 -12 10 -14 6 -3 5 -4 -2
-3 -7 2 -12 13 -10 26 2 19 -1 21 -23 16 -19 -5 -25 -2 -25 10 0 10 6 14 14
11 9 -3 17 3 21 16 6 19 8 20 12 5 3 -12 14 -18 31 -17 27 0 27 0 5 11 -27 13
-28 21 -8 41 8 8 11 18 7 23 -4 5 1 2 11 -6 16 -12 20 -12 28 1 7 12 9 12 9
-1 1 -13 2 -13 13 0 7 8 19 15 27 15 10 0 14 8 12 23 -4 29 14 29 20 -1 6 -28
-1 -49 -13 -41 -5 3 -9 0 -9 -5 0 -6 5 -11 11 -11 5 0 7 -5 4 -10 -5 -8 -11
-7 -21 1 -8 7 -14 7 -14 1 0 -10 23 -22 40 -22 5 0 12 16 16 35 7 41 16 44 34
10 8 -16 22 -25 37 -25 17 0 23 -6 23 -23 0 -28 34 -59 56 -50 11 4 14 13 10
29 -4 14 -2 24 4 24 6 0 8 -4 5 -10 -3 -5 3 -10 14 -10 12 0 20 3 18 8 -1 4 3
8 8 10 6 1 11 -13 13 -33 2 -19 8 -35 13 -35 6 0 8 -4 4 -10 -3 -5 -12 -7 -20
-3 -9 3 -15 -1 -15 -8 0 -12 -2 -12 -9 0 -18 28 -20 -8 -4 -55 22 -61 19 -57
33 -49 9 6 9 10 -1 17 -11 8 -11 11 -1 15 7 2 19 11 26 19 22 22 28 17 21 -17
-5 -21 -4 -29 3 -25 6 3 13 2 17 -4 3 -5 18 -10 33 -9 26 1 26 1 -5 10 -29 8
-32 13 -31 44 1 30 5 35 25 35 13 0 23 6 23 14 0 8 7 16 15 20 10 3 15 -1 15
-11 0 -14 2 -14 15 3 13 17 14 17 15 2 0 -19 20 -26 20 -8 0 15 17 12 23 -4 4
-10 1 -13 -9 -9 -7 3 -14 0 -14 -7 0 -6 -4 -9 -8 -6 -4 2 -14 1 -22 -5 -22
-13 30 -12 85 3 56 15 66 34 16 34 -30 -1 -35 2 -33 18 3 15 -1 18 -17 13 -19
-5 -21 -1 -22 36 0 38 -1 40 -11 20 -11 -23 -38 -32 -38 -12 0 7 -12 8 -32 5
-28 -5 -29 -4 -10 4 25 11 30 30 7 30 -8 0 -15 7 -15 15 0 20 27 19 48 -1 15
-15 17 -15 30 4 l13 21 21 -21 c11 -11 17 -26 14 -34 -8 -20 11 -17 23 4 9 15
10 15 11 -5 0 -12 -6 -23 -12 -26 -9 -3 -5 -11 11 -25 19 -17 27 -19 43 -11
16 8 23 8 29 -2 7 -12 11 -11 20 1 8 12 9 10 4 -9 -5 -17 -4 -22 6 -19 9 3 13
16 11 34 l-3 29 17 -32 c9 -18 23 -33 30 -33 8 0 17 0 21 -1 4 0 9 4 11 10 2
6 -6 11 -17 11 -12 0 -21 5 -21 10 0 23 39 9 47 -17 l10 -28 6 26 c5 21 13 26
39 27 30 1 31 -1 14 -13 -10 -8 -15 -19 -11 -25 4 -7 3 -15 -3 -19 -13 -8 -5
-51 9 -51 8 0 14 39 10 63 0 4 4 7 9 7 6 0 8 -10 4 -24 -4 -19 -1 -24 19 -28
14 -3 33 0 43 5 14 8 16 6 11 -12 -8 -33 10 -25 22 11 15 41 -1 52 -47 32 -25
-10 -33 -11 -29 -1 2 6 9 12 14 12 20 0 25 13 13 35 -7 12 -18 19 -26 16 -8
-3 -14 -1 -14 4 0 6 -6 9 -12 8 -8 -2 -12 5 -10 17 2 11 4 30 4 42 0 16 5 20
17 16 9 -4 20 -12 24 -20 4 -7 15 -13 22 -13 8 0 15 -7 15 -16 0 -12 6 -15 24
-10 31 8 45 -30 15 -39 -10 -4 -19 -10 -19 -15 0 -5 7 -7 16 -3 21 8 35 -16
23 -39 -6 -10 -7 -29 -3 -41 5 -12 7 -28 6 -34 -2 -7 2 -13 8 -13 5 0 10 6 10
14 0 7 11 22 25 32 14 10 25 27 25 36 0 10 14 33 30 51 30 34 39 54 20 42 -13
-8 -13 1 0 26 12 21 42 26 39 7 -3 -28 2 -49 10 -43 5 3 13 0 16 -6 5 -6 0
-10 -11 -9 -33 4 -41 0 -57 -24 -14 -21 -14 -25 -1 -30 9 -4 18 2 24 17 9 22
9 22 9 1 1 -12 8 -24 16 -28 8 -3 12 -12 9 -21 -4 -10 0 -15 11 -15 9 0 13 -5
10 -10 -4 -6 -12 -7 -18 -4 -8 5 -8 3 1 -7 17 -18 15 -27 -9 -34 -21 -7 -21
-30 0 -30 6 0 15 -5 19 -10 11 -17 48 -12 43 5 -2 8 -6 28 -9 44 -4 25 -2 28
16 24 12 -4 23 0 26 7 5 15 -21 28 -36 18 -8 -4 -9 6 -5 31 5 31 3 37 -9 32
-10 -4 -14 -1 -11 6 2 7 15 13 28 13 28 0 49 12 49 26 0 6 -4 7 -10 4 -11 -7
-60 23 -60 36 0 14 17 11 34 -7 19 -18 36 -11 36 16 0 10 7 21 16 24 22 8 24
8 24 -6 0 -6 -3 -8 -7 -4 -4 3 -13 -17 -20 -46 -8 -29 -21 -60 -30 -70 -10
-11 -12 -18 -5 -18 7 0 11 -3 10 -7 -5 -14 30 -55 37 -44 3 6 0 11 -7 12 -7 0
-4 4 7 8 11 5 23 7 26 5 9 -5 -2 -54 -12 -54 -5 0 -9 -9 -9 -19 0 -12 -11 -23
-27 -29 l-28 -10 27 -1 c15 -1 30 4 33 9 4 6 16 8 27 4 18 -5 20 -3 16 24 -4
28 -3 29 26 22 68 -18 99 1 89 52 -3 16 -1 28 5 28 6 0 18 8 28 17 13 13 19
14 22 5 2 -6 15 -12 28 -12 13 0 24 -5 24 -10 0 -6 -3 -9 -7 -8 -15 4 -83 -13
-83 -20 0 -4 14 -13 31 -19 25 -10 34 -9 50 5 10 9 19 20 19 25 0 19 39 48 60
45 29 -4 37 -53 13 -77 -15 -15 -15 -16 0 -19 10 -2 15 -7 12 -12 -6 -10 26
-22 46 -18 9 2 13 -5 12 -19 -1 -12 5 -24 14 -27 26 -10 28 2 8 40 -18 34 -18
35 1 49 10 8 14 15 7 15 -6 0 -19 -10 -27 -22 -16 -22 -21 -15 -17 20 1 6 -3
12 -9 12 -15 0 -7 49 11 61 10 8 9 9 -7 4 -18 -4 -24 0 -32 24 -9 25 -8 29 4
24 8 -3 13 -11 11 -17 -3 -8 7 -12 28 -13 20 -1 36 5 39 13 3 8 11 14 17 14 8
0 8 -4 -1 -15 -11 -13 -11 -20 0 -40 13 -24 40 -24 40 0 0 7 6 15 14 18 9 3
12 14 9 25 -7 27 25 38 43 15 15 -20 12 -39 -5 -35 -7 1 -11 -15 -11 -42 0
-26 -6 -48 -15 -56 -19 -15 -20 -41 -2 -34 8 3 25 0 40 -5 30 -12 46 2 28 23
-18 22 -2 48 26 42 21 -6 23 -3 21 24 -1 17 -8 30 -15 30 -7 0 -13 5 -13 11 0
6 7 9 15 5 19 -7 19 -1 -2 19 -14 14 -14 18 -2 26 11 6 22 -9 49 -66 24 -52
40 -75 53 -75 14 0 16 5 11 28 -4 15 -11 33 -17 40 -7 8 -5 12 5 12 17 0 41
-46 33 -61 -4 -5 0 -9 9 -9 8 0 17 -6 20 -12 3 -7 3 -1 0 15 -4 16 -2 27 5 27
19 0 12 22 -9 27 -25 7 -26 19 -2 32 9 5 17 13 17 17 0 5 7 9 15 10 8 1 27 4
42 7 25 5 27 4 18 -13 -14 -25 1 -32 33 -15 22 11 26 11 32 -3 6 -15 7 -15 17
2 7 13 7 25 -2 41 -20 38 -2 49 26 16 13 -16 24 -33 23 -38 -1 -4 -1 -12 0
-17 1 -12 41 39 41 53 0 22 16 10 30 -21 7 -18 15 -36 17 -39 2 -4 -3 -14 -12
-23 -14 -13 -14 -16 -2 -16 25 0 42 28 27 45 -16 19 -4 35 27 35 19 0 24 -4
19 -16 -6 -15 -4 -15 18 0 31 20 33 20 39 -1 4 -17 5 -17 6 0 1 10 9 17 21 17
12 0 20 -7 21 -17 0 -15 2 -15 9 2 5 11 9 14 9 7 1 -8 6 -9 19 -3 9 5 32 16
50 23 28 11 32 16 26 41 -4 20 -2 27 10 27 19 0 21 -17 4 -22 -7 -3 -6 -7 5
-11 11 -4 17 -1 17 8 0 17 16 20 24 6 10 -15 -5 -40 -20 -34 -8 3 -14 -1 -14
-11 0 -9 7 -16 16 -16 11 0 14 -5 10 -16 -3 -9 -6 -20 -6 -25 0 -4 -7 -6 -15
-3 -20 8 -19 2 5 -26 21 -24 50 -21 50 5 0 19 23 45 39 45 6 0 11 6 11 13 0 8
3 7 10 -3 7 -12 12 -12 22 -2 13 13 38 16 38 4 0 -4 -13 -13 -29 -19 -28 -10
-28 -12 -18 -46 12 -39 27 -40 27 -2 0 29 29 62 40 45 6 -9 11 -7 19 6 11 17
11 17 6 -3 -6 -23 7 -29 58 -25 20 2 23 -14 5 -21 -8 -3 -6 -6 5 -6 9 -1 17 4
17 9 0 6 7 10 15 10 8 0 15 2 15 3 0 5 -28 65 -40 89 -13 24 11 29 38 8 12
-10 22 -27 22 -37 0 -10 9 -26 20 -36 22 -18 55 -24 45 -7 -9 14 8 13 23 -2 8
-8 12 -8 12 -1 0 6 6 13 14 16 10 4 12 0 8 -16 -5 -19 -3 -20 10 -9 14 11 17
10 20 -4 2 -12 14 -17 39 -18 l36 -1 -14 33 c-11 27 -11 32 0 32 18 0 10 51
-11 66 -11 8 -12 13 -3 18 6 4 9 12 6 17 -4 5 -2 9 3 9 5 0 13 -10 18 -21 9
-19 11 -20 25 -6 18 18 36 10 53 -24 7 -14 19 -23 29 -21 9 2 17 -2 17 -8 0
-5 3 -9 8 -9 18 3 32 -2 32 -11 0 -15 -40 -12 -56 5 -24 23 -44 18 -44 -10 0
-27 -9 -32 -27 -14 -9 9 -12 4 -11 -20 1 -19 6 -31 15 -31 7 0 13 -9 13 -20 0
-15 6 -19 23 -17 15 1 22 -3 22 -15 0 -28 18 -38 50 -29 17 5 24 10 17 10 -7
1 -10 6 -6 13 4 7 3 8 -4 4 -19 -12 -38 5 -20 18 8 6 23 25 33 41 l19 30 -23
-20 -23 -20 3 25 c3 17 11 26 27 28 14 2 22 10 22 23 0 24 12 24 35 -1 22 -25
35 -26 35 -2 1 16 1 16 11 -1 20 -34 28 -76 16 -81 -8 -3 -9 -7 -1 -13 17 -14
33 -64 45 -143 6 -41 13 -91 16 -110 3 -19 5 -44 4 -55 -5 -62 -2 -126 8 -157
7 -21 9 -69 6 -125 -4 -69 -2 -99 11 -129 11 -27 19 -93 25 -219 5 -99 12
-187 16 -195 3 -8 10 -53 14 -100 5 -47 12 -112 17 -145 5 -33 6 -64 2 -70
-17 -23 -18 -63 -5 -134 17 -92 26 -161 30 -261 3 -41 9 -95 14 -120 6 -25 13
-99 16 -165 6 -113 5 -123 -15 -158 -18 -31 -21 -47 -16 -86 8 -59 -9 -292
-29 -407 -8 -47 -12 -110 -9 -146 3 -35 2 -82 -3 -106 l-8 -43 -509 -4 c-429
-3 -514 -1 -537 11 -33 17 -43 18 -34 4 3 -6 -2 -11 -12 -12 -49 -4 -59 -4
-68 3 -16 11 -66 13 -105 4 -59 -14 -144 -13 -161 2 -16 14 -69 9 -69 -6 0
-10 -184 -1 -190 10 -3 4 -12 4 -20 -1 -19 -12 -60 -13 -60 -1 0 5 -11 8 -25
6 -14 -1 -33 4 -42 11 -10 7 -26 14 -35 14 -17 0 -22 10 -19 36 2 14 -81 44
-118 44 -30 0 -59 -16 -48 -26 3 -4 14 -1 22 6 13 11 19 10 36 -8 22 -24 3
-32 -20 -9 -10 10 -11 9 -6 -5 5 -12 1 -20 -8 -24 -9 -3 -13 -12 -10 -20 7
-19 -126 -19 -182 0 -39 14 -95 11 -95 -4 0 -4 -54 -7 -119 -7 -66 1 -118 4
-115 8 2 4 -2 9 -10 12 -8 3 -17 0 -20 -8 -4 -10 -25 -13 -85 -12 -44 0 -83
-2 -87 -6 -16 -16 -84 -7 -105 14 -19 19 -23 20 -30 6 -12 -20 -70 -30 -104
-17 -20 8 -30 8 -35 0 -8 -12 -252 -12 -287 1 -14 5 -23 4 -25 -3 -3 -8 -11
-9 -24 -3 -10 4 -27 7 -37 6 -10 -2 -25 6 -33 16 -13 17 -13 17 -14 -4 0 -14
-6 -23 -15 -23 -8 0 -15 5 -15 11 0 7 -7 8 -17 4 -42 -16 -146 -25 -160 -14
-10 9 -20 9 -39 0 -23 -10 -26 -9 -35 18 -8 22 -15 28 -30 24 -10 -3 -19 -13
-20 -22 0 -10 -2 -11 -6 -3 -2 6 -17 11 -31 11 -17 -1 -21 -3 -9 -6 20 -5 23
-23 3 -23 -8 0 -23 -3 -33 -6 -15 -5 -16 -4 -3 6 11 9 12 13 2 17 -6 2 -9 9
-6 15 4 6 -1 8 -15 3 -16 -5 -21 -2 -21 11 0 14 -3 15 -12 6 -7 -7 -21 -12
-31 -12 -13 0 -17 -5 -14 -14 4 -10 1 -13 -7 -10 -7 3 -16 -2 -19 -10 -7 -17
-37 -22 -37 -7 0 5 -12 8 -27 5 -15 -3 -30 0 -35 8 -6 9 -10 10 -15 2 -10 -15
-79 -12 -95 4 -10 10 -10 15 2 22 15 10 13 11 -27 15 -19 2 -20 -1 -12 -22 5
-13 9 -26 9 -29 0 -10 -33 -3 -46 11 -19 19 -44 19 -44 1 0 -15 -68 -28 -76
-15 -2 4 -14 5 -26 2 -13 -4 -25 0 -33 10 -11 15 -14 15 -33 -3 -23 -22 -42
-26 -42 -10 0 6 -7 10 -15 10 -8 0 -15 -4 -15 -10 0 -5 -5 -10 -11 -10 -5 0
-7 5 -3 11 5 8 -12 10 -60 7 -43 -2 -66 0 -66 7 0 6 -9 11 -20 12 -11 1 -20
-2 -20 -8 0 -5 7 -9 15 -9 8 0 15 -5 15 -11 0 -6 -12 -9 -26 -7 -22 2 -40 19
-50 46 -4 11 -34 -14 -34 -29 0 -10 -3 -20 -7 -20 -5 -1 -19 -3 -33 -4 -14 -1
-48 -6 -77 -10 -51 -7 -52 -7 -59 19 -7 28 -30 30 -28 2 2 -21 -39 -22 -56 -1
-7 8 -26 15 -43 15 -17 0 -38 7 -47 15 -12 10 -27 13 -49 9 -18 -4 -28 -10
-21 -14 31 -19 -52 -43 -142 -41 -61 2 -81 -15 -25 -21 19 -2 31 -8 29 -15 -1
-7 7 -13 19 -13 45 0 6 -18 -53 -24 -35 -4 -78 -9 -97 -13 -24 -4 -32 -2 -27
6 4 6 3 11 -3 11 -6 0 -8 7 -4 16 5 14 0 15 -34 9 -32 -5 -42 -3 -46 9 -4 9
-15 16 -26 16 -11 0 -23 5 -26 10 -13 22 -88 5 -107 -24 -6 -8 -10 -8 -16 1
-5 9 -17 10 -37 4 -28 -9 -27 -12 0 -15 6 -1 20 -8 33 -15 20 -11 21 -15 10
-28 -13 -17 -2 -17 81 1 14 3 29 2 35 -3 12 -9 167 -24 231 -22 142 5 2441 5
2575 0 187 -6 208 -13 273 -92 42 -52 48 -70 48 -148 0 -34 6 -74 11 -88 6
-14 15 -53 19 -86 4 -33 12 -90 18 -127 6 -37 13 -99 15 -137 3 -38 10 -116
15 -173 6 -56 16 -184 21 -283 6 -99 16 -250 22 -335 5 -85 11 -177 13 -205 1
-27 7 -113 13 -190 13 -174 17 -414 8 -436 -4 -10 -3 -20 2 -23 6 -3 10 -49
11 -102 1 -53 3 -100 6 -104 6 -10 5 -325 -2 -495 -3 -82 -6 -166 -5 -185 3
-72 -46 -257 -66 -253 -5 1 -64 3 -131 4 -96 1 -121 4 -121 15 0 8 -7 14 -16
14 -11 0 -14 -5 -10 -16 5 -14 4 -15 -8 -5 -10 8 -15 9 -18 1 -4 -12 -209 -18
-700 -22 -126 -1 -228 -4 -228 -8 0 -3 21 -7 47 -8 26 -1 49 -5 52 -10 3 -5
14 -12 24 -15 11 -4 21 -16 24 -27 3 -11 9 -20 13 -20 10 0 25 33 29 60 2 16
31 11 31 -5 0 -8 -4 -15 -9 -15 -13 0 -20 -39 -8 -43 7 -2 10 -21 9 -44 l-3
-41 78 -6 c163 -12 182 -12 178 -6 -3 4 19 3 47 -2 41 -8 63 -6 105 7 32 10
65 14 81 10 67 -16 291 -36 447 -39 50 -1 95 -5 102 -9 6 -4 13 -1 16 5 3 10
8 10 17 2 8 -8 24 -9 48 -3 59 14 99 11 106 -7 4 -11 10 -13 19 -6 6 5 44 12
82 14 58 4 96 -1 222 -33 142 -36 181 -41 401 -53 28 -2 52 1 52 5 0 5 5 9 11
9 6 0 8 -9 4 -20 -9 -28 1 -25 56 17 48 36 62 67 37 76 -10 3 -10 8 -2 17 8 8
14 9 18 1 10 -15 48 -14 71 3 30 20 89 24 105 7 10 -10 15 -11 18 -3 4 14 68
16 76 3 8 -12 73 -8 107 6 37 16 107 5 114 -17 8 -24 74 -34 95 -15 12 11 35
13 100 8 47 -3 126 -6 175 -7 93 -2 135 -10 135 -27 0 -13 26 -11 51 4 17 9
23 9 26 0 3 -8 22 -13 44 -13 40 0 44 6 40 53 -1 9 4 17 12 17 10 0 14 -11 12
-40 -1 -22 1 -42 4 -44 4 -3 21 8 40 24 26 23 37 27 54 19 12 -5 30 -12 40
-15 20 -7 22 -20 5 -28 -7 -3 8 -3 35 0 30 3 47 1 47 -6 0 -6 11 -15 25 -20
19 -7 33 -5 58 10 41 26 67 26 67 1 0 -25 31 -35 62 -20 28 12 108 -4 108 -22
0 -13 61 -69 76 -69 26 0 42 -46 43 -130 1 -46 4 -94 7 -107 6 -24 24 -32 24
-11 0 6 2 9 5 6 3 -3 0 -25 -6 -49 -12 -46 -5 -72 46 -159 8 -14 15 -43 15
-65 0 -22 5 -47 10 -55 6 -10 10 167 10 509 l0 523 -35 -6 c-19 -3 -51 -9 -70
-12 -30 -5 -35 -4 -35 14 0 23 -35 36 -60 22 -10 -5 -20 -6 -24 -3 -3 3 -14 7
-24 8 -9 1 -25 6 -36 10 -11 5 -21 3 -25 -4 -4 -7 -15 -9 -25 -5 -15 6 -17 3
-11 -14 8 -27 -10 -29 -24 -4 -7 13 -6 23 1 30 9 9 9 12 1 12 -7 0 -15 -5 -18
-10 -3 -6 -17 -7 -31 -4 -16 4 -29 1 -37 -9 -22 -27 -115 -38 -142 -17 -23 19
-163 11 -151 -9 10 -16 -25 -27 -89 -29 -38 -1 -80 -2 -93 -3 -13 -1 -34 9
-47 21 -22 21 -27 22 -57 9 -21 -9 -82 -15 -168 -16 -74 -2 -148 -3 -165 -4
-16 0 -46 2 -65 4 -21 2 -44 -2 -58 -11 -16 -10 -36 -13 -66 -9 -32 5 -54 1
-82 -12 -37 -18 -129 -26 -102 -10 16 10 10 15 -27 23 -20 4 -25 3 -16 -3 19
-12 5 -31 -24 -31 -22 0 -23 3 -20 41 4 34 2 40 -11 35 -11 -4 -15 -2 -11 8 4
10 0 12 -14 9 -15 -4 -18 -2 -13 11 3 9 2 16 -2 16 -19 0 -32 -16 -31 -35 1
-11 -4 -20 -10 -21 -7 -1 -19 -2 -25 -3 -8 -1 -9 -4 -3 -9 58 -42 -107 -67
-308 -47 -63 6 -77 11 -75 24 2 13 -6 16 -39 15 -24 0 -51 -8 -60 -16 -20 -18
-153 -27 -188 -14 -11 4 -30 12 -43 17 -13 5 -30 25 -38 44 -19 46 -36 52 -73
25 l-30 -21 5 63 c3 35 7 68 9 75 2 7 -1 18 -8 25 -17 19 -17 61 1 74 14 11
14 16 0 53 -9 22 -13 43 -8 46 5 3 9 82 9 176 0 93 2 173 5 177 2 4 1 27 -4
50 -4 25 -3 60 2 83 8 30 7 44 -5 62 -11 17 -13 41 -10 94 3 39 1 84 -4 100
-6 15 -7 37 -3 48 4 11 6 23 3 27 -2 4 -6 43 -8 85 -3 43 -7 92 -9 108 -2 17
-7 53 -11 80 -3 28 -9 62 -11 78 -3 15 -2 27 3 27 12 0 33 -60 33 -94 0 -18 4
-26 13 -23 6 2 11 10 10 18 -4 35 -38 135 -50 147 -9 10 -10 19 -1 37 8 18 8
32 0 52 -7 15 -14 55 -17 88 -5 56 -5 58 10 40 16 -19 16 -19 10 10 -3 17 -16
38 -28 47 -22 17 -22 17 -2 31 16 12 17 17 6 30 -7 10 -10 25 -6 38 5 14 3 19
-3 15 -6 -3 -13 -2 -17 4 -3 5 -1 10 5 10 7 0 9 8 4 23 -4 12 -8 39 -10 60 -1
21 -5 50 -9 65 -3 16 -2 39 4 53 l9 24 7 -28 c4 -15 11 -27 16 -27 16 0 9 27
-12 46 -15 13 -19 27 -16 49 2 16 -1 46 -8 65 -8 19 -16 102 -19 184 -3 82
-10 152 -14 155 -5 3 -8 41 -7 83 2 47 -1 78 -7 78 -6 0 -7 18 -4 45 4 26 3
45 -3 45 -5 0 -8 43 -6 103 2 56 -1 107 -6 113 -5 7 -11 34 -13 60 -2 27 -7
72 -11 100 -5 42 -3 52 9 57 9 4 16 11 16 17 0 15 30 44 60 60 19 10 144 13
575 11 302 -1 577 -2 610 -3 33 0 251 -1 485 -1 234 0 445 0 470 0 262 0 742
8 745 14 3 3 -24 9 -58 12 -48 4 -65 10 -76 26 -7 12 -23 21 -34 21 -16 0 -18
3 -9 12 17 17 15 45 -3 52 -8 3 -19 -2 -23 -11 -11 -19 -40 -11 -49 14 -7 22
-38 53 -52 53 -11 0 -42 86 -34 94 3 3 2 13 -1 23 -6 15 -8 15 -17 3 -8 -13
-10 -13 -19 0 -15 23 -12 67 5 84 12 12 13 20 5 35 -15 29 -13 54 5 47 12 -4
15 3 15 29 0 18 -5 46 -10 60 -9 22 -8 26 4 22 12 -5 13 -1 5 23 -6 16 -16 27
-23 24 -6 -2 -12 3 -12 13 -1 10 -3 33 -7 50 -3 18 -1 35 4 39 11 6 0 114 -13
131 -5 6 -6 23 -2 36 3 14 3 31 -1 36 -3 6 -8 71 -10 144 -3 72 -7 156 -11
185 -3 34 -2 52 5 52 6 0 11 7 11 15 0 8 -4 15 -8 15 -18 0 -27 48 -27 137 0
50 -3 89 -6 87 -4 -2 -9 2 -11 9 -6 17 -2 107 6 114 10 10 7 35 -4 28 -5 -3
-10 -1 -10 4 0 6 5 11 11 11 7 0 8 11 4 32 -4 18 -7 52 -7 77 1 25 -3 50 -9
57 -17 20 -24 121 -10 138 9 10 9 21 3 33 -5 10 -10 65 -10 122 -1 58 -6 109
-11 114 -6 6 -11 22 -11 35 0 17 5 22 18 20 11 -3 16 -12 14 -28 -1 -15 1 -20
6 -13 4 7 7 50 7 98 -1 47 3 85 7 85 5 0 1 11 -8 25 -9 14 -22 25 -29 25 -7 0
-18 20 -25 44 -12 45 -7 72 12 60 6 -4 8 -1 6 7 -3 8 -11 13 -18 11 -8 -2 -10
3 -7 13 4 8 2 15 -3 15 -6 0 -10 5 -10 11 0 5 4 8 9 5 10 -6 21 26 21 62 0 13
6 22 16 22 13 0 15 6 9 28 -3 15 -7 38 -7 52 0 14 -4 31 -10 38 -6 6 -7 12 -2
12 5 0 1 5 -9 11 -14 8 -16 14 -6 25 7 8 20 12 30 9 13 -4 19 -1 19 9 0 8 -10
16 -22 18 -16 2 -22 9 -20 21 2 10 -3 26 -10 34 -11 14 -10 16 10 11 17 -5 22
-2 22 12 0 10 9 20 20 23 11 3 20 10 20 17 0 6 -4 9 -9 6 -10 -7 -21 17 -21
45 0 17 3 17 28 6 15 -6 30 -16 34 -21 3 -5 13 -2 23 7 9 10 21 17 26 17 6 0
8 4 4 9 -3 5 0 20 6 34 9 19 7 31 -5 56 -23 43 -12 54 29 31 32 -18 35 -18 35
-2 0 9 4 22 8 29 10 16 52 5 52 -13 0 -17 -12 -18 -28 -2 -15 15 -26 4 -18
-18 3 -9 12 -14 21 -10 19 7 19 1 -1 -18 -16 -16 -11 -36 8 -36 6 0 8 3 5 7
-4 3 0 14 8 23 9 10 15 24 13 31 -2 10 6 13 26 11 28 -3 28 -2 22 32 -6 30 -4
35 9 30 9 -4 15 -1 15 7 0 9 4 7 11 -4 10 -18 11 -18 24 0 7 10 17 15 21 11 4
-4 2 -14 -4 -21 -13 -15 -6 -27 14 -27 7 0 10 8 7 21 -8 29 17 21 28 -10 6
-14 5 -20 -1 -16 -15 9 -12 -11 3 -22 6 -6 24 -13 40 -17 l27 -6 0 81 0 82
-165 -7 c-158 -6 -170 -8 -248 -40 -45 -19 -98 -37 -117 -41 -19 -4 -45 -13
-58 -21 -12 -8 -51 -24 -87 -35 -35 -11 -67 -24 -70 -29 -11 -18 -25 -10 -25
13 0 12 -7 32 -14 43 -13 18 -29 22 -133 27 -65 4 -136 11 -158 17 -23 5 -236
10 -490 11 -855 2 -1540 1 -1627 -4 -49 -3 -100 -2 -115 2 -46 12 -78 -1 -79
-32 -1 -38 -14 -47 -15 -11 -1 16 -1 32 0 37 0 4 -34 8 -77 9 -42 1 -93 3
-112 4 -35 1 -409 3 -465 2 -16 -1 -71 0 -122 2 -61 2 -97 -1 -107 -9 -10 -8
-15 -9 -18 -1 -5 15 -233 14 -364 -1 -53 -6 -104 -7 -113 -3 -9 4 -128 8 -266
9 -137 2 -280 3 -317 4 -39 1 -68 5 -68 11 0 6 18 39 40 73 105 167 152 339
184 672 8 85 22 169 32 195 13 34 18 79 19 180 2 135 9 190 26 190 23 0 -8
174 -47 259 -65 145 -183 316 -314 457 -11 12 -20 26 -20 31 0 5 -15 24 -34
42 -36 35 -81 56 -256 122 -140 53 -229 96 -236 114 -4 9 -19 15 -41 15 -21 0
-57 12 -88 30 -30 17 -93 44 -141 60 -100 33 -118 45 -84 58 44 16 3 22 -88
13 -50 -5 -100 -14 -111 -20 -28 -15 -25 -17 -65 43 -51 76 -82 99 -127 93
-89 -12 -168 -105 -218 -257 -37 -110 -52 -198 -66 -392 -7 -103 -17 -193 -21
-199 -3 -6 -23 30 -44 82 -84 211 -184 341 -318 408 -33 16 -102 55 -153 86
-51 30 -97 55 -101 55 -20 0 -5 -20 30 -41 114 -67 119 -77 82 -149 -17 -34
-18 -40 -5 -40 8 0 15 -5 15 -11 0 -5 25 -41 56 -80 31 -38 55 -72 52 -75 -5
-5 -189 84 -198 96 -3 4 -17 10 -32 14 -16 3 -28 11 -28 16 0 6 -7 10 -14 10
-14 0 -112 28 -234 68 -59 18 -57 10 -28 112 33 115 14 133 -71 68 -32 -23
-74 -52 -95 -62 -20 -11 -47 -28 -60 -38 -23 -18 -23 -18 39 -12 64 7 113 0
113 -15 0 -8 -38 -16 -100 -22 -8 -1 -20 -6 -27 -11 -7 -5 -22 -9 -35 -8 -48
4 -58 0 -58 -22 0 -17 3 -19 9 -9 14 21 19 -1 11 -44 -4 -22 -8 -33 -9 -25 -1
13 -3 13 -10 1 -5 -8 -16 -11 -26 -7 -11 4 -25 0 -36 -10 -11 -10 -19 -12 -19
-7 0 6 6 16 14 22 16 14 17 52 2 63 -12 8 -26 1 -26 -13 0 -6 5 -7 10 -4 22
14 8 -23 -22 -55 -33 -37 -59 -41 -89 -14 -8 7 -29 15 -45 18 -16 2 -41 8 -56
14 -14 6 -35 10 -45 10 -10 -1 -56 8 -103 20 -94 24 -133 30 -265 38 -81 5
-102 3 -210 -26 -110 -30 -135 -33 -307 -38 -190 -4 -217 1 -167 30 11 7 29
30 40 50 10 21 33 48 49 60 17 12 49 53 70 91 37 64 40 72 34 123 l-7 54 52 0
c28 0 62 -6 74 -14 22 -14 101 -16 114 -3 6 7 -36 11 -64 8 -16 -2 -17 11 -1
27 11 11 9 19 -38 129 -8 17 -14 39 -15 50 -1 20 -37 124 -38 108 0 -5 5 -36
13 -67 7 -32 9 -62 5 -70 -5 -7 -9 -8 -9 -3 0 6 -27 10 -62 10 -51 0 -63 -4
-66 -18 -2 -9 -7 -17 -10 -17 -33 0 -207 -32 -223 -41 -25 -13 -40 -2 -18 14
8 7 18 19 21 27 4 10 35 23 82 34 42 10 76 22 76 27 0 12 -5 12 -85 -11 -38
-11 -73 -27 -78 -35 -13 -23 -36 -18 -47 11 -17 44 -13 54 23 54 23 0 28 3 17
10 -8 5 -12 12 -8 15 12 12 61 15 74 4 11 -9 14 -9 14 1 0 7 7 10 16 6 8 -3
12 -2 9 4 -6 9 8 14 28 11 4 0 7 3 7 9 0 6 5 10 10 10 6 0 10 -7 10 -15 0 -18
26 -20 36 -3 4 7 13 -7 20 -32 14 -47 11 -60 -12 -60 -8 0 -14 -5 -14 -11 0
-6 7 -8 16 -5 9 3 20 6 26 6 12 0 3 72 -13 101 -5 11 -20 19 -32 20 l-22 0 23
9 c30 12 28 24 -3 18 -29 -6 -31 -2 -10 18 16 17 19 60 6 114 -9 41 -5 60 15
60 8 0 14 3 14 8 0 4 12 12 26 19 21 10 28 9 44 -7 20 -20 36 -81 27 -104 -4
-9 -1 -13 7 -10 8 3 17 -13 25 -46 7 -28 15 -49 18 -47 5 6 -19 101 -54 216
-32 102 -51 125 -96 115 -18 -3 -38 -11 -44 -16 -15 -12 -15 -9 -13 47 1 35
-2 41 -20 41 -11 0 -33 -5 -48 -11z m-928 -865 c-12 -5 -85 -18 -163 -31 -78
-12 -140 -24 -137 -26 4 -4 111 10 264 35 38 7 52 6 52 -3 0 -11 -42 -19 -355
-65 -152 -23 -158 -23 -150 -10 3 6 21 10 38 11 18 1 43 5 57 10 35 12 -65 2
-215 -21 -66 -10 -149 -21 -185 -24 l-65 -6 51 25 c32 16 76 27 123 31 40 3
93 14 118 25 52 22 74 23 118 8 31 -12 88 -6 345 36 41 7 86 13 100 13 24 1
24 0 4 -8z m-2239 -3347 c-4 -27 -11 -73 -16 -103 -23 -128 -31 -187 -30 -220
1 -84 4 -100 17 -111 16 -13 19 -33 4 -24 -6 3 -10 -4 -10 -17 0 -18 2 -20 10
-8 8 12 10 11 10 -6 0 -12 -7 -24 -15 -28 -17 -6 -21 -76 -5 -76 16 0 12 -40
-5 -46 -15 -6 -21 -25 -7 -23 18 3 32 -2 32 -12 0 -5 -4 -8 -8 -5 -4 2 -13 2
-19 -2 -17 -12 -55 -93 -49 -108 3 -8 1 -14 -4 -14 -12 0 -2 -120 12 -130 9
-7 13 -134 5 -148 -4 -5 -2 -23 3 -38 6 -15 9 -33 6 -40 -3 -8 -1 -16 4 -19 5
-3 7 -40 4 -85 -4 -53 -2 -80 5 -80 17 0 29 -63 26 -139 -1 -45 2 -68 8 -64 6
4 7 1 2 -7 -4 -6 -3 -29 3 -49 6 -20 15 -66 20 -103 6 -37 17 -81 26 -99 9
-18 16 -40 16 -50 0 -10 8 -26 18 -35 15 -16 15 -17 0 -12 -17 7 -28 -9 -28
-40 0 -14 8 -16 45 -14 49 4 54 -1 28 -31 -15 -16 -18 -42 -19 -176 -1 -86 -5
-181 -9 -211 -4 -30 -9 -66 -11 -80 -4 -42 -24 -190 -39 -295 -8 -55 -19 -149
-25 -210 -5 -60 -15 -111 -20 -113 -6 -2 -10 -12 -10 -21 0 -10 -3 -20 -6 -24
-3 -3 -8 -27 -10 -53 -2 -26 -11 -58 -19 -71 -9 -13 -17 -37 -17 -53 -1 -19
-9 -32 -24 -41 -27 -14 -31 -37 -9 -45 10 -4 13 -13 10 -25 -4 -11 -8 -29 -10
-42 -7 -49 -18 -87 -25 -87 -5 0 -6 -9 -3 -20 3 -11 2 -28 -2 -37 -5 -10 -7
-24 -6 -30 2 -14 -9 -16 -33 -7 -9 3 -16 12 -16 20 0 8 -5 14 -11 14 -5 0 -7
-5 -4 -10 3 -5 -1 -10 -9 -10 -10 0 -16 9 -16 23 -1 20 -2 21 -14 5 -18 -24
-47 -23 -74 2 -12 12 -22 18 -22 15 0 -3 -9 -1 -20 5 -12 6 -56 12 -99 14 -91
3 -105 9 -95 39 4 12 8 46 9 76 0 38 5 57 18 66 19 14 23 61 5 67 -8 3 -5 12
10 28 12 13 22 32 22 42 0 10 3 18 8 18 4 0 7 10 8 23 3 62 9 94 21 119 16 33
17 72 2 62 -6 -3 -19 -25 -29 -49 -10 -24 -23 -46 -29 -49 -16 -10 -13 6 5 32
8 12 10 22 5 22 -6 0 -11 -5 -11 -11 0 -6 -6 -9 -14 -6 -12 5 -14 -3 -11 -36
2 -23 8 -43 12 -45 34 -11 37 -21 14 -41 -13 -12 -33 -21 -43 -21 -11 0 -18
-5 -15 -12 2 -7 -5 -28 -15 -46 -22 -39 -22 -42 -4 -42 19 0 25 -20 14 -45 -8
-18 -8 -18 -4 3 5 27 2 27 -24 5 -25 -22 -26 -43 -1 -43 16 0 19 -6 16 -31 -3
-18 -7 -34 -10 -37 -5 -6 -125 -12 -125 -7 0 2 9 27 19 57 40 108 163 555 211
763 18 77 38 160 45 185 7 25 23 82 36 128 12 45 27 82 31 82 5 0 6 -4 3 -10
-3 -5 -2 -10 4 -10 5 0 13 5 17 11 4 8 9 7 15 -2 12 -20 11 -29 -3 -27 -8 2
-12 -6 -11 -17 1 -11 3 -29 4 -40 3 -23 -11 -116 -19 -129 -3 -6 -7 -19 -8
-30 -5 -42 -11 -60 -22 -64 -7 -2 -12 -12 -12 -22 0 -10 -4 -22 -10 -25 -18
-11 -11 -31 11 -32 30 -3 30 -4 18 -59 -24 -115 -35 -194 -27 -206 6 -10 10
-10 18 2 5 8 8 21 5 28 -3 8 0 12 7 10 7 -3 13 -13 13 -24 0 -19 14 -22 60
-13 16 3 21 -2 23 -25 2 -16 -2 -40 -9 -53 -7 -12 -10 -26 -6 -29 10 -10 39 5
32 16 -6 9 15 38 31 43 4 1 11 -9 16 -22 8 -23 9 -24 23 -5 8 10 15 15 15 10
0 -11 29 25 30 37 0 5 -4 5 -10 2 -5 -3 -10 -2 -10 4 0 6 11 13 25 17 20 5 25
12 23 34 -2 25 -5 27 -25 19 -30 -11 -30 4 0 20 19 10 22 20 22 69 0 31 3 69
8 85 6 23 4 27 -13 27 -22 0 -27 15 -7 27 18 12 17 135 -1 146 -9 6 -11 18 -8
33 4 13 2 24 -3 24 -5 0 -12 7 -15 16 -4 10 -2 13 7 8 7 -5 6 0 -3 10 -14 18
-17 37 -22 173 -2 35 -6 63 -10 63 -5 0 -8 17 -8 38 -1 35 -2 36 -15 18 -11
-15 -15 -16 -16 -5 -5 70 16 175 42 207 10 14 19 37 19 53 0 15 7 34 15 43 16
15 20 54 7 72 -5 7 -15 6 -32 -3 -14 -7 -19 -13 -11 -13 9 0 6 -7 -9 -20 -13
-11 -18 -20 -12 -20 7 0 12 -8 12 -17 0 -13 -3 -14 -12 -5 -19 19 -25 14 -33
-25 -4 -21 -15 -57 -26 -80 -10 -23 -16 -48 -13 -56 3 -8 1 -18 -5 -22 -31
-18 -24 57 34 370 20 110 45 265 56 345 20 142 26 193 49 375 6 50 19 137 29
195 10 58 24 139 30 180 7 41 18 107 26 145 7 39 19 108 25 155 10 81 22 160
35 243 9 56 28 47 20 -10z m-685 -3496 c22 -11 25 -18 22 -56 -5 -62 -28 -111
-52 -111 -13 0 -20 -7 -20 -19 0 -11 -4 -23 -10 -26 -5 -3 -10 -17 -10 -30 0
-13 -3 -25 -8 -27 -4 -1 -18 -16 -30 -32 -17 -22 -33 -31 -60 -33 l-38 -4 2
52 c2 34 13 71 32 108 16 31 40 86 53 124 23 66 25 67 59 67 19 0 46 -6 60
-13z m185 -1445 c-61 -59 -132 -131 -158 -161 -26 -30 -49 -52 -51 -50 -22 26
-24 49 -6 72 11 14 20 28 20 32 0 7 102 108 154 153 27 23 41 29 31 13 -3 -5
-1 -12 5 -16 5 -3 10 -2 10 3 0 5 12 15 28 23 15 8 36 22 46 31 11 10 22 15
25 12 3 -3 -44 -54 -104 -112z m11287 -1212 c29 0 33 -28 7 -50 -13 -10 -30
-19 -37 -20 -7 0 -23 -6 -35 -14 -20 -12 -40 -13 -165 -7 -13 1 -20 6 -17 11
3 6 1 10 -4 10 -6 0 -11 7 -11 15 0 21 44 47 71 41 13 -3 38 1 54 9 18 9 47
13 74 10 24 -3 52 -5 63 -5z"/>
<path d="M21608 4469 c-10 -5 -18 -16 -18 -24 0 -12 6 -12 28 -5 24 9 25 9 9
-4 -10 -7 -20 -30 -22 -51 -3 -20 -8 -42 -11 -47 -4 -6 0 -14 7 -19 11 -6 11
-11 2 -20 -6 -6 -9 -18 -6 -25 3 -8 0 -14 -6 -14 -14 0 -15 27 -1 35 18 11
-13 31 -45 29 -41 -2 -42 -3 -25 -14 13 -8 13 -10 -2 -10 -9 0 -20 -5 -24 -12
-5 -7 -2 -9 8 -5 12 4 14 1 10 -15 -3 -14 -1 -19 6 -14 16 10 15 -7 0 -23 -11
-11 -9 -11 9 -2 31 16 35 14 28 -11 -6 -19 -5 -21 6 -10 23 22 27 13 26 -55
l-2 -68 40 -3 c22 -2 36 0 32 5 -5 4 -16 8 -24 8 -9 0 -18 6 -20 13 -3 6 2 12
10 12 20 0 10 38 -12 43 -11 3 -9 5 6 6 15 1 21 7 20 21 -1 11 -5 20 -11 20
-5 0 -2 8 7 18 11 12 14 30 10 65 -5 39 -3 47 11 47 19 0 20 18 2 42 -10 13
-15 15 -24 6 -23 -23 -12 9 13 38 20 23 22 30 10 32 -8 2 -13 8 -10 13 8 12
-15 11 -37 -2z"/>
<path d="M23034 11300 l-101 -5 17 -27 c9 -16 20 -25 25 -20 4 4 5 1 1 -6 -4
-7 -16 -10 -26 -7 -12 4 -25 -3 -38 -20 -11 -13 -44 -43 -73 -64 -30 -22 -67
-50 -84 -62 -58 -44 -183 -213 -205 -280 -27 -78 -57 -139 -73 -144 -7 -3 -23
-6 -37 -7 -14 -2 -28 -11 -32 -20 -4 -10 -18 -18 -30 -18 -13 0 -34 -3 -47 -7
-23 -6 -23 -5 -16 38 4 24 16 68 26 98 18 51 18 81 0 52 -5 -7 -11 -12 -15
-11 -3 0 -14 -4 -24 -10 -15 -11 -15 -11 2 -6 21 7 21 6 -8 -124 -8 -36 -13
-66 -12 -68 2 -1 46 4 97 13 52 8 108 17 124 18 17 2 48 13 71 24 35 19 41 19
50 6 14 -23 56 -7 82 33 21 32 21 36 6 59 -15 23 -14 28 29 107 25 46 51 103
58 128 15 52 87 127 178 186 31 20 79 54 107 75 40 31 60 39 93 39 25 0 40 4
36 10 -4 6 7 8 27 5 20 -3 13 1 -17 10 -65 19 -75 19 -76 -2 0 -15 -2 -15 -7
-3 -6 12 -25 14 -108 10z"/>
<path d="M26108 10993 c-28 -4 -36 -17 -18 -28 25 -15 4 -35 -75 -70 -46 -20
-90 -44 -96 -51 -24 -29 -31 -14 -24 46 5 41 4 60 -4 60 -6 0 -11 -10 -11 -22
-1 -13 -8 -41 -16 -63 -8 -22 -19 -60 -24 -85 -5 -25 -12 -53 -16 -64 -7 -17
-3 -18 47 -12 31 4 104 9 164 11 59 3 109 6 111 8 2 1 7 38 13 81 6 54 15 85
28 98 13 12 64 28 159 47 l139 29 -144 0 c-89 0 -148 5 -154 11 -11 11 -27 12
-79 4z"/>
<path d="M21755 10543 c-28 -7 -44 -19 -145 -113 -50 -45 -102 -91 -116 -102
-17 -14 -23 -26 -19 -39 4 -11 2 -19 -4 -19 -6 0 -11 5 -11 11 0 14 -61 -35
-159 -127 -48 -45 -89 -95 -109 -131 -21 -39 -48 -71 -84 -98 -64 -49 -70 -53
-133 -105 -27 -23 -87 -64 -132 -91 -46 -28 -83 -54 -83 -59 0 -4 -10 -11 -22
-14 -25 -7 -88 -60 -88 -75 0 -5 7 -14 15 -21 12 -10 23 -4 62 34 25 25 52 46
59 46 7 0 15 -13 19 -30 4 -16 10 -30 15 -30 15 0 70 58 70 73 0 9 9 22 20 30
11 8 37 29 58 48 69 63 146 124 156 124 6 1 10 6 9 13 -2 7 3 12 11 12 8 0 23
11 34 25 11 13 22 22 25 19 2 -3 14 6 25 20 10 14 23 22 27 18 5 -4 5 -2 2 4
-8 14 17 37 28 26 5 -4 5 -2 2 4 -6 10 39 50 53 47 3 0 14 8 25 20 11 11 13
16 5 12 -8 -4 -2 6 15 24 16 17 35 29 43 26 7 -2 11 -1 8 4 -3 4 10 22 28 40
34 33 36 40 22 73 -4 9 -5 22 -1 28 11 18 35 11 35 -10 0 -34 27 -23 105 43
64 54 74 66 75 95 0 26 11 45 50 86 27 29 47 56 43 59 -7 7 -7 7 -38 0z"/>
<path d="M21135 9121 c-22 -26 -17 -104 14 -200 43 -132 22 -139 -66 -23 -71
95 -123 152 -140 152 -22 0 -35 -39 -28 -83 12 -72 90 -187 213 -315 28 -29
55 -60 60 -69 12 -21 18 23 37 277 10 130 11 196 4 200 -5 4 -18 22 -27 41
-20 41 -42 47 -67 20z"/>
<path d="M21055 8481 c-28 -21 -60 -40 -70 -43 -16 -3 -20 -12 -19 -48 0 -25
8 -61 17 -80 9 -19 15 -44 14 -55 -1 -14 3 -19 16 -17 11 2 17 -4 17 -17 0
-11 5 -23 11 -26 6 -4 8 -13 5 -20 -3 -8 6 -24 19 -37 14 -13 25 -28 25 -35 0
-7 6 -16 13 -20 35 -21 47 -58 48 -148 2 -126 6 -89 24 216 18 321 18 342 4
333 -6 -3 -24 3 -40 15 -15 11 -29 21 -31 21 -2 0 -26 -18 -53 -39z"/>
<path d="M21492 8258 c0 -54 4 -78 13 -82 8 -3 11 -13 8 -25 -3 -12 2 -39 11
-61 9 -22 16 -51 16 -64 0 -13 7 -27 16 -30 10 -4 14 -12 10 -22 -3 -9 1 -32
10 -52 33 -79 69 -148 83 -163 14 -14 18 -13 38 12 13 15 23 33 23 41 0 21
-46 158 -68 203 -11 22 -26 60 -33 85 -7 25 -16 49 -21 55 -4 5 -8 17 -8 27 0
10 -4 18 -10 18 -5 0 -14 18 -21 39 -8 27 -16 38 -26 34 -7 -3 -13 -2 -12 3 4
22 -2 45 -10 40 -5 -4 -11 0 -14 6 -3 7 -5 -22 -5 -64z"/>
<path d="M21017 7984 c-3 -3 -3 -12 0 -20 4 -12 0 -14 -23 -8 -16 4 -36 10
-44 14 -25 13 -50 -13 -50 -51 0 -38 24 -134 37 -152 5 -7 9 -19 8 -27 -1 -8
5 -33 12 -54 7 -22 11 -41 9 -43 -7 -8 -46 8 -46 18 0 5 -6 9 -14 9 -8 0 -18
9 -21 20 -4 11 -20 35 -36 52 -16 18 -29 40 -29 49 0 9 -9 19 -20 22 -11 3
-20 9 -19 14 5 30 -3 43 -27 43 -23 0 -26 -3 -22 -25 3 -14 1 -28 -3 -31 -5
-3 -6 -24 -3 -47 3 -23 7 -53 9 -67 11 -91 20 -127 34 -144 11 -13 12 -20 4
-23 -12 -4 0 -58 18 -77 5 -6 9 -18 9 -28 0 -10 4 -18 9 -18 5 0 12 -19 15
-42 3 -24 7 -52 9 -63 3 -11 5 -29 7 -40 1 -11 4 -15 7 -7 2 6 9 12 14 12 6 0
7 -4 4 -10 -3 -5 0 -10 7 -10 8 -1 4 -9 -9 -19 -26 -22 -30 -63 -8 -84 7 -8
17 -26 21 -41 5 -20 2 -26 -10 -26 -9 0 -16 -5 -16 -11 0 -6 9 -8 20 -4 27 9
26 -14 -1 -44 -12 -13 -19 -30 -16 -42 3 -10 1 -22 -4 -25 -5 -3 -9 0 -9 5 0
6 -9 11 -20 11 -17 0 -18 -3 -9 -18 9 -15 8 -28 -6 -60 -10 -22 -23 -38 -29
-36 -6 2 -12 -9 -13 -26 -1 -19 3 -30 11 -30 7 0 19 -11 26 -25 9 -17 17 -22
25 -15 8 6 18 5 31 -4 26 -20 14 -28 -25 -16 -38 11 -61 4 -61 -17 0 -13 2
-13 16 -2 15 12 16 9 13 -28 -3 -31 -1 -39 9 -35 8 2 11 13 9 23 -5 20 10 36
33 35 11 -1 15 -13 15 -43 0 -22 3 -44 7 -48 4 -4 4 -13 1 -21 -3 -8 0 -14 7
-14 6 0 10 10 8 22 -2 17 3 22 25 25 19 3 27 -1 27 -12 0 -8 -6 -15 -14 -15
-17 0 -31 -18 -21 -28 3 -3 10 -1 14 6 10 17 38 5 44 -18 3 -13 11 -17 25 -14
15 5 20 1 21 -18 0 -12 4 -48 9 -78 7 -54 8 -51 25 90 10 80 24 222 33 315 8
94 26 289 39 435 32 342 41 505 28 497 -5 -3 -17 3 -26 14 -17 19 -25 54 -26
114 -1 17 -5 35 -9 41 -8 13 -57 26 -65 18z"/>
<path d="M20871 6429 c-1 -14 -10 -35 -21 -47 -12 -13 -20 -35 -20 -58 0 -23
-7 -42 -17 -51 -17 -13 -17 -13 2 -11 15 2 21 -4 23 -24 3 -27 -12 -40 -20
-16 -3 8 -11 7 -28 -5 l-24 -17 37 0 c40 0 50 -15 17 -25 -22 -7 -28 -27 -7
-24 24 3 37 -1 37 -12 0 -5 -4 -8 -10 -4 -18 11 -58 -7 -69 -32 -14 -32 -3
-53 15 -28 16 21 15 21 31 -22 8 -23 8 -35 1 -39 -7 -5 -5 -11 6 -19 15 -12
15 -13 -4 -18 -13 -3 -18 -10 -14 -21 4 -11 0 -16 -14 -16 -18 0 -32 -18 -32
-41 0 -17 19 -9 25 10 5 15 17 21 53 23 41 3 47 6 50 27 2 13 0 21 -6 17 -11
-6 -24 18 -15 28 3 3 14 1 25 -5 11 -6 22 -8 25 -5 3 3 -2 8 -11 12 -9 4 -16
17 -16 33 0 15 -5 32 -11 38 -12 12 -4 33 11 33 5 0 11 -8 13 -17 4 -16 5 -16
6 -1 0 9 -6 23 -14 32 -22 22 -18 36 10 36 14 0 25 5 25 11 0 5 -10 9 -22 7
-31 -4 -30 23 0 38 15 7 20 14 13 19 -6 3 -9 10 -7 14 3 4 -3 17 -13 27 -14
16 -15 22 -5 32 7 7 18 12 24 12 5 0 10 12 10 28 0 15 4 33 9 40 4 7 6 24 4
37 -5 21 -7 22 -31 9 -24 -12 -28 -12 -34 4 -5 13 -7 11 -7 -9z"/>
<path d="M20838 5793 c-20 -5 -23 -19 -7 -29 6 -3 15 0 20 7 4 7 11 10 15 6 4
-4 3 -12 -3 -18 -6 -6 -9 -18 -5 -27 4 -11 1 -14 -11 -9 -12 5 -17 1 -17 -14
0 -13 6 -19 18 -17 12 2 18 -4 19 -22 1 -14 0 -18 -3 -7 -6 20 -15 22 -32 5
-9 -9 -12 -8 -12 5 0 9 -4 17 -10 17 -5 0 -10 7 -10 16 0 14 -3 14 -15 4 -10
-9 -15 -9 -15 -1 0 6 -4 11 -9 11 -12 0 -21 -39 -10 -46 5 -3 5 -13 -1 -24 -5
-10 -7 -32 -4 -49 4 -20 2 -31 -5 -31 -6 0 -11 14 -11 30 0 17 -4 30 -9 30 -5
0 -9 -10 -9 -22 0 -107 -6 -232 -12 -273 -5 -30 -4 -55 2 -62 6 -7 5 -14 -4
-20 -7 -4 -14 -17 -14 -28 -2 -30 -11 -82 -28 -165 -13 -65 -13 -77 0 -90 12
-12 14 -12 14 2 0 9 14 28 30 41 17 14 30 30 30 35 0 5 6 15 14 21 7 6 19 33
26 59 6 26 16 57 22 68 6 12 11 35 12 50 1 16 5 34 9 40 4 7 7 34 8 60 1 27 8
59 16 72 7 12 12 26 9 30 -6 11 14 104 27 120 7 9 6 11 -7 6 -12 -4 -16 0 -16
15 0 12 7 24 15 27 8 4 15 14 15 24 0 11 4 21 9 25 5 3 9 34 9 70 0 69 -4 73
-60 58z"/>
<path d="M27705 5110 c-4 -6 -22 -17 -42 -25 -44 -19 -253 -21 -286 -3 -12 6
-53 12 -92 13 -38 1 -72 3 -75 5 -3 1 -33 3 -67 4 -42 1 -64 -3 -68 -11 -2 -7
-14 -13 -25 -13 -12 0 -18 5 -15 10 9 15 -37 12 -57 -4 -10 -7 -16 -22 -13
-34 5 -30 -10 -36 -47 -18 -21 11 -35 13 -42 6 -5 -5 -18 -10 -28 -10 -10 0
-18 -4 -18 -10 0 -5 -12 -10 -26 -10 -14 0 -23 -4 -20 -8 3 -5 148 -9 323 -10
175 -1 404 -5 508 -8 105 -3 258 0 340 6 83 6 167 10 188 10 40 -1 53 23 17
33 -12 3 -20 14 -20 25 0 20 -5 20 -127 17 -81 -2 -133 1 -141 7 -9 8 -22 6
-46 -7 -37 -20 -92 -14 -83 9 9 24 -25 47 -38 26z"/>
<path d="M20574 2740 c-5 -21 -11 -29 -20 -26 -8 3 -14 -1 -14 -8 0 -9 -7 -12
-20 -9 -11 3 -20 0 -20 -6 0 -6 -5 -11 -10 -11 -13 0 -28 -12 -91 -72 -28 -27
-54 -48 -59 -48 -10 0 -83 -60 -142 -116 -29 -27 -42 -33 -62 -28 -13 3 -33 1
-43 -5 -17 -10 -17 -10 3 -11 19 0 31 -28 12 -31 -28 -5 -78 -30 -78 -41 0 -4
-10 -8 -22 -8 -13 0 -30 -5 -38 -10 -12 -8 -11 -10 5 -10 11 0 28 -9 38 -20
17 -20 16 -20 -10 -14 -16 3 -40 10 -55 16 -22 8 -33 7 -53 -6 -32 -21 -33
-39 -1 -24 14 6 33 7 43 4 15 -6 12 -10 -17 -22 -19 -8 -58 -33 -87 -54 -29
-22 -58 -37 -66 -34 -8 3 -18 0 -23 -7 -5 -8 -3 -10 7 -4 8 5 3 -4 -10 -18
l-25 -27 59 20 c32 11 90 37 129 59 39 21 103 55 141 76 39 21 135 82 215 135
80 53 154 100 165 105 19 8 19 9 -2 12 -37 7 -27 21 35 52 31 16 77 50 101 76
36 38 49 46 70 42 25 -5 81 19 81 35 0 9 -76 53 -108 63 -19 5 -23 2 -28 -25z"/>
<path d="M24236 1515 c3 -11 9 -28 11 -37 3 -10 15 -18 27 -19 20 0 20 -1 1
-9 -11 -4 -36 -14 -56 -22 -36 -13 -33 -13 55 -14 91 0 153 -17 126 -34 -26
-16 18 -25 135 -26 79 -1 122 2 127 10 11 16 10 48 -2 41 -5 -3 -7 -12 -3 -20
3 -10 -2 -15 -16 -15 -12 0 -21 3 -21 8 1 12 25 51 32 52 4 0 15 3 23 6 36 14
8 19 -92 16 -71 -2 -127 2 -163 12 -38 10 -57 11 -61 4 -4 -7 -15 -8 -25 -3
-11 4 -26 9 -34 11 -8 2 -16 7 -18 13 -2 5 -9 8 -16 5 -7 -3 -18 5 -25 18 -8
17 -10 17 -5 3z"/>
<path d="M30085 1518 c-55 -3 -674 -7 -1375 -7 -1553 -1 -2198 -6 -2970 -26
-547 -13 -698 -19 -715 -26 -12 -5 8 -7 53 -6 55 2 75 -2 82 -13 5 -8 12 -12
15 -8 8 7 45 -27 45 -42 0 -13 17 -13 25 0 3 5 18 10 33 10 25 0 25 -1 6 -15
-19 -15 -19 -15 1 -9 19 5 19 5 1 -6 -14 -9 -28 -10 -56 -1 -52 15 -58 14 -30
-6 27 -20 53 -20 1130 -26 l485 -2 37 -23 c39 -24 74 -66 102 -119 20 -39 22
-221 4 -328 -7 -38 -12 -115 -11 -170 1 -55 1 -148 1 -207 0 -69 5 -114 13
-130 23 -40 61 -152 62 -178 0 -14 -3 -60 -8 -102 l-8 -78 37 0 36 0 0 100 c0
82 3 102 15 107 14 5 14 7 0 23 -8 9 -12 19 -9 23 3 3 1 14 -5 24 -6 11 -11
13 -11 5 0 -7 -4 -10 -10 -7 -16 10 -12 23 10 30 11 3 20 11 20 16 0 6 -4 7
-10 4 -16 -10 -35 6 -19 16 10 7 11 11 2 17 -7 4 -13 59 -17 146 -4 77 -8 149
-11 160 -2 12 -7 99 -10 195 -3 96 -8 178 -11 183 -3 4 -1 8 5 8 6 0 8 7 4 16
-5 13 -2 15 13 10 17 -5 19 -1 19 33 0 35 7 46 54 91 84 80 90 82 446 86 171
2 407 9 525 15 118 6 455 11 750 10 294 0 574 4 623 10 48 5 224 9 392 9 l305
1 5 22 c4 13 -1 36 -9 52 l-16 30 0 -30 c0 -46 -12 -56 -69 -59 -43 -2 -54 2
-68 21 -20 26 -35 31 -27 8 4 -10 0 -15 -11 -15 -9 0 -14 4 -11 9 3 5 0 9 -7
8 -38 -1 -47 4 -47 28 0 28 38 50 77 42 15 -3 20 0 16 10 -3 7 0 13 6 13 6 0
11 -4 11 -10 0 -5 7 -10 15 -10 8 0 15 4 15 8 0 14 48 33 55 22 10 -16 35 -12
35 5 0 10 10 15 28 15 29 0 60 15 46 22 -5 2 -54 0 -109 -4z"/>
<path d="M22890 1449 c0 -7 -10 -9 -25 -6 -25 4 -25 4 -8 -16 13 -14 15 -21 6
-24 -24 -8 -13 -31 17 -37 17 -3 44 -9 61 -12 25 -5 30 -3 24 7 -6 11 -5 12 6
2 15 -15 53 -18 45 -4 -4 5 9 5 28 -1 28 -9 37 -7 58 11 19 17 24 29 20 49 -5
27 -5 27 17 8 19 -17 21 -17 21 -2 0 14 8 16 53 12 44 -5 47 -4 17 4 -47 12
-60 13 -96 12 -27 -2 -30 -5 -27 -29 3 -20 -2 -32 -16 -40 -17 -10 -19 -10
-15 1 3 7 -2 20 -10 29 -9 9 -13 23 -10 31 5 14 -4 16 -61 16 -37 0 -64 -4
-61 -9 3 -5 23 -7 44 -4 28 4 41 1 52 -13 14 -16 13 -17 -10 -11 -19 5 -29 1
-38 -13 -16 -27 -31 -25 -25 3 3 16 2 18 -5 8 -8 -11 -13 -10 -30 5 -12 10
-19 21 -16 26 3 4 0 8 -5 8 -6 0 -11 -5 -11 -11z"/>
<path d="M6370 1349 c-394 -8 -350 -8 -2655 -5 -1758 1 -1692 3 -1710 -43 -4
-9 -9 -52 -11 -96 -3 -44 -9 -101 -14 -126 -17 -84 -37 -576 -29 -694 5 -69 3
-94 -7 -106 -9 -10 -16 -59 -20 -147 l-7 -132 2309 0 c1494 0 2304 4 2294 10
-8 5 -11 10 -6 10 5 0 3 7 -4 15 -10 12 -10 15 4 15 19 0 20 5 6 31 -8 14 -18
18 -39 14 -23 -4 -30 -1 -34 16 -5 17 -2 20 14 16 33 -9 21 10 -13 20 l-33 11
30 7 c33 7 58 46 48 72 -5 13 -1 15 20 9 25 -6 26 -4 21 22 -4 19 -1 32 10 41
17 14 22 41 7 41 -13 0 -11 54 3 63 7 5 4 13 -11 26 -13 11 -23 26 -23 35 0
13 -5 14 -26 6 -22 -9 -25 -8 -22 7 2 12 11 17 26 15 28 -4 29 6 1 16 -20 8
-20 9 7 35 15 15 32 27 39 27 7 0 16 7 19 16 4 11 13 14 30 10 14 -3 26 -2 28
2 2 5 16 12 31 16 19 4 26 3 22 -4 -8 -14 -4 -13 33 6 46 22 195 29 212 9 7
-8 18 -15 25 -15 8 0 16 -6 18 -12 4 -10 8 -10 15 1 19 26 56 5 76 -44 18 -45
18 -47 -1 -64 -11 -10 -29 -22 -41 -25 -24 -8 -29 -21 -9 -30 6 -3 2 -3 -11 0
-13 3 -36 0 -52 -6 -16 -7 -35 -10 -42 -7 -8 3 -4 9 12 15 14 6 19 11 11 11
-9 1 -11 9 -7 26 7 29 -1 32 -20 8 -9 -13 -9 -22 -2 -30 7 -9 7 -13 -1 -14 -6
-1 -17 -2 -23 -3 -8 0 -14 -18 -16 -41 -1 -22 -7 -49 -11 -60 -19 -43 -20 -55
-6 -55 8 0 15 -7 15 -15 0 -10 10 -15 26 -15 22 0 25 2 14 15 -11 13 -8 15 14
15 16 0 25 4 21 10 -3 6 1 10 9 10 25 0 66 -22 64 -34 -4 -15 4 -18 25 -11 9
4 17 16 17 26 0 10 5 19 10 19 6 0 10 -4 10 -10 0 -5 9 -10 19 -10 11 0 22 -9
26 -19 4 -12 12 -18 21 -14 8 3 20 0 28 -6 8 -7 38 -14 67 -18 30 -3 57 -11
61 -17 5 -7 8 -4 8 7 0 19 17 22 40 7 9 -5 19 -5 26 1 14 12 66 1 58 -12 -3
-5 2 -9 10 -9 19 0 21 -17 4 -22 -6 -2 -8 -10 -4 -16 10 -17 26 -5 26 19 0 28
27 23 34 -7 4 -15 6 -27 4 -28 -2 -1 -14 -7 -28 -13 l-25 -12 24 0 c19 -1 21
-4 12 -15 -6 -8 -10 -20 -9 -27 4 -19 -36 -23 -53 -6 -9 8 -38 14 -74 15 -121
2 -194 16 -158 29 10 4 9 8 -2 20 -8 8 -15 18 -15 23 0 15 31 40 42 34 7 -4 8
-2 4 4 -4 7 -18 12 -31 12 -13 0 -27 5 -30 10 -9 15 -25 12 -25 -5 0 -8 8 -15
17 -15 14 0 14 -3 5 -12 -10 -10 -15 -10 -21 1 -16 25 -38 4 -52 -48 -7 -28
-16 -51 -21 -51 -4 0 -8 -7 -8 -15 0 -12 -4 -14 -19 -5 -11 5 -22 6 -25 1 -3
-4 -24 -11 -46 -15 -26 -4 -38 -10 -34 -17 4 -6 0 -15 -7 -20 -11 -7 -9 -9 6
-10 14 -1 10 -4 -10 -9 -16 -4 187 -8 453 -9 315 -1 482 2 482 9 0 6 7 10 15
10 8 0 15 -4 15 -10 0 -7 325 -10 956 -10 781 0 953 2 942 13 -25 25 -74 36
-178 40 -69 3 -119 11 -145 22 -29 13 -65 17 -135 16 -118 -1 -153 10 -189 60
-16 21 -31 35 -35 32 -9 -9 -10 13 -10 362 l-1 319 -69 34 c-38 18 -92 39
-120 47 -28 7 -118 42 -201 78 -82 35 -168 70 -190 77 -22 7 -67 25 -100 40
-33 15 -94 37 -135 48 -175 50 -290 82 -369 102 -46 12 -103 31 -125 42 -40
21 -54 21 -541 22 -275 1 -660 -2 -855 -5z m-42 -724 c7 -7 6 -109 -1 -147 -6
-28 -13 -38 -26 -38 -10 0 -19 -6 -18 -12 1 -34 -4 -48 -18 -48 -8 0 -15 -6
-16 -12 0 -7 -5 3 -12 22 -9 25 -23 40 -49 53 -21 9 -38 24 -38 33 0 8 5 12
10 9 15 -9 12 11 -4 24 -15 13 -10 59 11 79 7 7 13 20 13 27 0 7 10 15 23 17
25 5 119 -1 125 -7z m1375 -405 c3 -11 0 -21 -7 -24 -6 -2 -1 -5 11 -5 12 -1
29 -4 39 -8 13 -5 16 -3 11 10 -4 11 -2 14 9 10 9 -3 14 2 14 16 0 21 14 28
24 12 3 -5 15 -7 27 -4 24 7 45 -17 26 -29 -8 -5 -4 -8 11 -8 12 0 21 -4 20
-9 -2 -5 5 -16 14 -23 18 -14 21 -26 19 -70 -1 -19 -5 -26 -15 -22 -8 3 -16
-3 -19 -15 -3 -13 -13 -21 -27 -21 -17 0 -20 4 -16 23 3 12 3 16 0 10 -9 -21
-46 4 -39 26 3 10 -1 24 -10 31 -8 7 -15 18 -15 25 0 18 -23 25 -65 18 -27 -4
-33 -9 -25 -18 8 -10 6 -15 -10 -20 -30 -9 -34 -2 -20 39 6 20 9 40 6 45 -10
15 4 40 19 35 7 -3 15 -14 18 -24z"/>
<path d="M16013 580 l-21 -17 27 -16 c14 -9 20 -17 14 -17 -7 0 -13 -5 -13
-11 0 -6 7 -8 16 -5 13 5 14 1 9 -27 -11 -47 -75 -166 -102 -187 -13 -10 -23
-23 -23 -29 0 -6 -4 -11 -10 -11 -11 0 -13 -30 -4 -55 5 -13 9 -14 15 -4 6 10
11 10 23 0 21 -17 20 -33 -1 -53 -53 -48 -81 -87 -85 -116 l-5 -32 73 0 c67 0
72 1 67 20 -3 12 0 20 7 20 7 0 6 6 -4 16 -9 8 -16 26 -16 39 0 18 -4 23 -15
19 -25 -10 -17 12 10 26 14 7 25 17 25 22 0 4 7 8 16 8 8 0 28 12 43 27 15 16
41 33 57 38 16 6 33 19 39 30 6 13 18 19 31 17 21 -3 22 -2 9 60 -8 34 -11 67
-8 72 3 5 -2 15 -12 23 -18 12 -18 13 3 13 16 0 22 6 22 23 0 13 6 29 13 36
10 10 7 16 -13 31 -14 10 -29 19 -35 20 -5 1 -17 8 -25 15 -25 22 -103 25
-127 5z"/>
<path d="M10507 72 c-9 -22 -26 -47 -39 -56 -21 -15 -16 -16 90 -16 101 0 112
2 112 18 0 22 -25 59 -48 71 -9 5 -36 12 -58 15 -41 7 -41 7 -57 -32z"/>
<path d="M11330 48 c-14 -6 -77 -14 -140 -18 -64 -3 -125 -12 -135 -18 -15 -9
38 -11 227 -12 261 0 276 3 207 43 -34 19 -119 22 -159 5z"/>
</g>
</svg>
